M48
METRIC,TZ
T01C0.3810
T02C0.8890
T03C0.7620
T04C1.0160
T05C1.2700
%
T01
X+15063Y-25248
X+20143Y-20168
X+25223Y-25248
X+6808Y-29693
X+15063Y-34208
X+4268Y-29693
X+26493Y-30328
X+25223Y-23978
X+25223Y-26518
X+23953Y-19533
X+18873Y-23978
X+25223Y-27788
X+26493Y-20168
X+11888Y-32233
X+18873Y-27153
X+18873Y-16358
X+10618Y-30328
X+8713Y-25248
X+21413Y-19533
X+13158Y-29058
X+32843Y-28423
X+32843Y-27153
X+31058Y-30708
X+11253Y-11278
X+9983Y-21438
X+28398Y-18898
X+5538Y-22708
X+30303Y-37313
X+25223Y-21438
X+34748Y-23208
X+29668Y-18898
X+24588Y-8708
X+25858Y-15088
T02
X+5558Y-43208
X+5558Y-2708
X+7558Y-43208
X+7558Y-2708
X+9558Y-43208
X+9558Y-2708
X+11558Y-43208
X+11558Y-2708
X+13558Y-43208
X+13558Y-2708
X+15558Y-43208
X+15558Y-2708
X+17558Y-43208
X+17558Y-2708
X+19558Y-43208
X+19558Y-2708
X+21558Y-43208
X+21558Y-2708
X+23558Y-43208
X+23558Y-2708
X+25558Y-43208
X+25558Y-2708
X+27558Y-43208
X+27558Y-2708
X+29558Y-43208
X+29558Y-2708
X+31558Y-43208
X+31558Y-2708
T03
X+7478Y-13708
X+12558Y-13708
T04
X+28058Y-12708
X+26558Y-34208
X+4598Y-5208
X+7138Y-5208
X+9678Y-5208
X+12218Y-5208
X+14758Y-5208
X+17298Y-5208
X+19838Y-5208
X+22378Y-5208
X+24918Y-5208
X+27458Y-5208
X+29998Y-5208
X+32538Y-5208
X+35078Y-5208
X+4598Y-40708
X+7138Y-40708
X+9678Y-40708
X+12218Y-40708
X+14758Y-40708
X+17298Y-40708
X+19838Y-40708
X+22378Y-40708
X+24918Y-40708
X+27458Y-40708
X+29998Y-40708
X+32538Y-40708
X+35078Y-40708
X+5058Y-34208
X+7598Y-34208
X+17558Y-19208
X+17558Y-21748
T05
X+2058Y-5208
X+2058Y-40708
M30
