G04 PROTEUS RS274X GERBER FILE*
%FSLAX45Y45*%
%MOMM*%
G01*
%ADD23C,0.203200*%
%ADD26C,0.127000*%
%ADD27C,0.063500*%
D23*
X+1506272Y-2461272D02*
X+1506272Y-2588272D01*
X+1442772Y-2524772D02*
X+1569772Y-2524772D01*
X+2014272Y-1953272D02*
X+2014272Y-2080272D01*
X+1950772Y-2016772D02*
X+2077772Y-2016772D01*
X+2522272Y-2461272D02*
X+2522272Y-2588272D01*
X+2458772Y-2524772D02*
X+2585772Y-2524772D01*
X+680772Y-2905772D02*
X+680772Y-3032772D01*
X+617272Y-2969272D02*
X+744272Y-2969272D01*
X+1506272Y-3357272D02*
X+1506272Y-3484272D01*
X+1442772Y-3420772D02*
X+1569772Y-3420772D01*
X+426772Y-2905772D02*
X+426772Y-3032772D01*
X+363272Y-2969272D02*
X+490272Y-2969272D01*
X+2649272Y-2969272D02*
X+2649272Y-3096272D01*
X+2585772Y-3032772D02*
X+2712772Y-3032772D01*
X+2522272Y-2334272D02*
X+2522272Y-2461272D01*
X+2458772Y-2397772D02*
X+2585772Y-2397772D01*
X+2522272Y-2588272D02*
X+2522272Y-2715272D01*
X+2458772Y-2651772D02*
X+2585772Y-2651772D01*
X+2395272Y-1889772D02*
X+2395272Y-2016772D01*
X+2331772Y-1953272D02*
X+2458772Y-1953272D01*
X+1887272Y-2334272D02*
X+1887272Y-2461272D01*
X+1823772Y-2397772D02*
X+1950772Y-2397772D01*
X+2522272Y-2715272D02*
X+2522272Y-2842272D01*
X+2458772Y-2778772D02*
X+2585772Y-2778772D01*
X+2649272Y-1953272D02*
X+2649272Y-2080272D01*
X+2585772Y-2016772D02*
X+2712772Y-2016772D01*
X+1188772Y-3159772D02*
X+1188772Y-3286772D01*
X+1125272Y-3223272D02*
X+1252272Y-3223272D01*
X+1887272Y-2651772D02*
X+1887272Y-2778772D01*
X+1823772Y-2715272D02*
X+1950772Y-2715272D01*
X+1887272Y-1572272D02*
X+1887272Y-1699272D01*
X+1823772Y-1635772D02*
X+1950772Y-1635772D01*
X+1061772Y-2969272D02*
X+1061772Y-3096272D01*
X+998272Y-3032772D02*
X+1125272Y-3032772D01*
X+871272Y-2461272D02*
X+871272Y-2588272D01*
X+807772Y-2524772D02*
X+934772Y-2524772D01*
X+2141272Y-1889772D02*
X+2141272Y-2016772D01*
X+2077772Y-1953272D02*
X+2204772Y-1953272D01*
X+1315772Y-2842272D02*
X+1315772Y-2969272D01*
X+1252272Y-2905772D02*
X+1379272Y-2905772D01*
X+3284272Y-2778772D02*
X+3284272Y-2905772D01*
X+3220772Y-2842272D02*
X+3347772Y-2842272D01*
X+3284272Y-2651772D02*
X+3284272Y-2778772D01*
X+3220772Y-2715272D02*
X+3347772Y-2715272D01*
X+3105772Y-3007272D02*
X+3105772Y-3134272D01*
X+3042272Y-3070772D02*
X+3169272Y-3070772D01*
X+1125272Y-1064272D02*
X+1125272Y-1191272D01*
X+1061772Y-1127772D02*
X+1188772Y-1127772D01*
X+998272Y-2080272D02*
X+998272Y-2207272D01*
X+934772Y-2143772D02*
X+1061772Y-2143772D01*
X+2839772Y-1826272D02*
X+2839772Y-1953272D01*
X+2776272Y-1889772D02*
X+2903272Y-1889772D01*
X+553772Y-2207272D02*
X+553772Y-2334272D01*
X+490272Y-2270772D02*
X+617272Y-2270772D01*
X+3030272Y-3667772D02*
X+3030272Y-3794772D01*
X+2966772Y-3731272D02*
X+3093772Y-3731272D01*
X+2522272Y-2080272D02*
X+2522272Y-2207272D01*
X+2458772Y-2143772D02*
X+2585772Y-2143772D01*
X+3474772Y-2257272D02*
X+3474772Y-2384272D01*
X+3411272Y-2320772D02*
X+3538272Y-2320772D01*
X+2966772Y-1826272D02*
X+2966772Y-1953272D01*
X+2903272Y-1889772D02*
X+3030272Y-1889772D01*
X+2458772Y-807272D02*
X+2458772Y-934272D01*
X+2395272Y-870772D02*
X+2522272Y-870772D01*
X+2585772Y-1445272D02*
X+2585772Y-1572272D01*
X+2522272Y-1508772D02*
X+2649272Y-1508772D01*
X+555772Y-4257272D02*
X+555772Y-4384272D01*
X+492272Y-4320772D02*
X+619272Y-4320772D01*
X+510871Y-4275871D02*
X+600673Y-4365673D01*
X+510871Y-4365673D02*
X+600673Y-4275871D01*
X+555772Y-207272D02*
X+555772Y-334272D01*
X+492272Y-270772D02*
X+619272Y-270772D01*
X+510871Y-225871D02*
X+600673Y-315673D01*
X+510871Y-315673D02*
X+600673Y-225871D01*
X+755772Y-4257272D02*
X+755772Y-4384272D01*
X+692272Y-4320772D02*
X+819272Y-4320772D01*
X+710871Y-4275871D02*
X+800673Y-4365673D01*
X+710871Y-4365673D02*
X+800673Y-4275871D01*
X+755772Y-207272D02*
X+755772Y-334272D01*
X+692272Y-270772D02*
X+819272Y-270772D01*
X+710871Y-225871D02*
X+800673Y-315673D01*
X+710871Y-315673D02*
X+800673Y-225871D01*
X+955772Y-4257272D02*
X+955772Y-4384272D01*
X+892272Y-4320772D02*
X+1019272Y-4320772D01*
X+910871Y-4275871D02*
X+1000673Y-4365673D01*
X+910871Y-4365673D02*
X+1000673Y-4275871D01*
X+955772Y-207272D02*
X+955772Y-334272D01*
X+892272Y-270772D02*
X+1019272Y-270772D01*
X+910871Y-225871D02*
X+1000673Y-315673D01*
X+910871Y-315673D02*
X+1000673Y-225871D01*
X+1155772Y-4257272D02*
X+1155772Y-4384272D01*
X+1092272Y-4320772D02*
X+1219272Y-4320772D01*
X+1110871Y-4275871D02*
X+1200673Y-4365673D01*
X+1110871Y-4365673D02*
X+1200673Y-4275871D01*
X+1155772Y-207272D02*
X+1155772Y-334272D01*
X+1092272Y-270772D02*
X+1219272Y-270772D01*
X+1110871Y-225871D02*
X+1200673Y-315673D01*
X+1110871Y-315673D02*
X+1200673Y-225871D01*
X+1355772Y-4257272D02*
X+1355772Y-4384272D01*
X+1292272Y-4320772D02*
X+1419272Y-4320772D01*
X+1310871Y-4275871D02*
X+1400673Y-4365673D01*
X+1310871Y-4365673D02*
X+1400673Y-4275871D01*
X+1355772Y-207272D02*
X+1355772Y-334272D01*
X+1292272Y-270772D02*
X+1419272Y-270772D01*
X+1310871Y-225871D02*
X+1400673Y-315673D01*
X+1310871Y-315673D02*
X+1400673Y-225871D01*
X+1555772Y-4257272D02*
X+1555772Y-4384272D01*
X+1492272Y-4320772D02*
X+1619272Y-4320772D01*
X+1510871Y-4275871D02*
X+1600673Y-4365673D01*
X+1510871Y-4365673D02*
X+1600673Y-4275871D01*
X+1555772Y-207272D02*
X+1555772Y-334272D01*
X+1492272Y-270772D02*
X+1619272Y-270772D01*
X+1510871Y-225871D02*
X+1600673Y-315673D01*
X+1510871Y-315673D02*
X+1600673Y-225871D01*
X+1755772Y-4257272D02*
X+1755772Y-4384272D01*
X+1692272Y-4320772D02*
X+1819272Y-4320772D01*
X+1710871Y-4275871D02*
X+1800673Y-4365673D01*
X+1710871Y-4365673D02*
X+1800673Y-4275871D01*
X+1755772Y-207272D02*
X+1755772Y-334272D01*
X+1692272Y-270772D02*
X+1819272Y-270772D01*
X+1710871Y-225871D02*
X+1800673Y-315673D01*
X+1710871Y-315673D02*
X+1800673Y-225871D01*
X+1955772Y-4257272D02*
X+1955772Y-4384272D01*
X+1892272Y-4320772D02*
X+2019272Y-4320772D01*
X+1910871Y-4275871D02*
X+2000673Y-4365673D01*
X+1910871Y-4365673D02*
X+2000673Y-4275871D01*
X+1955772Y-207272D02*
X+1955772Y-334272D01*
X+1892272Y-270772D02*
X+2019272Y-270772D01*
X+1910871Y-225871D02*
X+2000673Y-315673D01*
X+1910871Y-315673D02*
X+2000673Y-225871D01*
X+2155772Y-4257272D02*
X+2155772Y-4384272D01*
X+2092272Y-4320772D02*
X+2219272Y-4320772D01*
X+2110871Y-4275871D02*
X+2200673Y-4365673D01*
X+2110871Y-4365673D02*
X+2200673Y-4275871D01*
X+2155772Y-207272D02*
X+2155772Y-334272D01*
X+2092272Y-270772D02*
X+2219272Y-270772D01*
X+2110871Y-225871D02*
X+2200673Y-315673D01*
X+2110871Y-315673D02*
X+2200673Y-225871D01*
X+2355772Y-4257272D02*
X+2355772Y-4384272D01*
X+2292272Y-4320772D02*
X+2419272Y-4320772D01*
X+2310871Y-4275871D02*
X+2400673Y-4365673D01*
X+2310871Y-4365673D02*
X+2400673Y-4275871D01*
X+2355772Y-207272D02*
X+2355772Y-334272D01*
X+2292272Y-270772D02*
X+2419272Y-270772D01*
X+2310871Y-225871D02*
X+2400673Y-315673D01*
X+2310871Y-315673D02*
X+2400673Y-225871D01*
X+2555772Y-4257272D02*
X+2555772Y-4384272D01*
X+2492272Y-4320772D02*
X+2619272Y-4320772D01*
X+2510871Y-4275871D02*
X+2600673Y-4365673D01*
X+2510871Y-4365673D02*
X+2600673Y-4275871D01*
X+2555772Y-207272D02*
X+2555772Y-334272D01*
X+2492272Y-270772D02*
X+2619272Y-270772D01*
X+2510871Y-225871D02*
X+2600673Y-315673D01*
X+2510871Y-315673D02*
X+2600673Y-225871D01*
X+2755772Y-4257272D02*
X+2755772Y-4384272D01*
X+2692272Y-4320772D02*
X+2819272Y-4320772D01*
X+2710871Y-4275871D02*
X+2800673Y-4365673D01*
X+2710871Y-4365673D02*
X+2800673Y-4275871D01*
X+2755772Y-207272D02*
X+2755772Y-334272D01*
X+2692272Y-270772D02*
X+2819272Y-270772D01*
X+2710871Y-225871D02*
X+2800673Y-315673D01*
X+2710871Y-315673D02*
X+2800673Y-225871D01*
X+2955772Y-4257272D02*
X+2955772Y-4384272D01*
X+2892272Y-4320772D02*
X+3019272Y-4320772D01*
X+2910871Y-4275871D02*
X+3000673Y-4365673D01*
X+2910871Y-4365673D02*
X+3000673Y-4275871D01*
X+2955772Y-207272D02*
X+2955772Y-334272D01*
X+2892272Y-270772D02*
X+3019272Y-270772D01*
X+2910871Y-225871D02*
X+3000673Y-315673D01*
X+2910871Y-315673D02*
X+3000673Y-225871D01*
X+3155772Y-4257272D02*
X+3155772Y-4384272D01*
X+3092272Y-4320772D02*
X+3219272Y-4320772D01*
X+3110871Y-4275871D02*
X+3200673Y-4365673D01*
X+3110871Y-4365673D02*
X+3200673Y-4275871D01*
X+3155772Y-207272D02*
X+3155772Y-334272D01*
X+3092272Y-270772D02*
X+3219272Y-270772D01*
X+3110871Y-225871D02*
X+3200673Y-315673D01*
X+3110871Y-315673D02*
X+3200673Y-225871D01*
X+702871Y-1325871D02*
X+792673Y-1415673D01*
X+702871Y-1415673D02*
X+792673Y-1325871D01*
X+1210871Y-1325871D02*
X+1300673Y-1415673D01*
X+1210871Y-1415673D02*
X+1300673Y-1325871D01*
X+2869272Y-1270772D02*
X+2869055Y-1265525D01*
X+2867290Y-1255030D01*
X+2863598Y-1244535D01*
X+2857570Y-1234040D01*
X+2848348Y-1223660D01*
X+2837853Y-1215972D01*
X+2827358Y-1211054D01*
X+2816863Y-1208248D01*
X+2806368Y-1207275D01*
X+2805772Y-1207272D01*
X+2742272Y-1270772D02*
X+2742489Y-1265525D01*
X+2744254Y-1255030D01*
X+2747946Y-1244535D01*
X+2753974Y-1234040D01*
X+2763196Y-1223660D01*
X+2773691Y-1215972D01*
X+2784186Y-1211054D01*
X+2794681Y-1208248D01*
X+2805176Y-1207275D01*
X+2805772Y-1207272D01*
X+2742272Y-1270772D02*
X+2742489Y-1276019D01*
X+2744254Y-1286514D01*
X+2747946Y-1297009D01*
X+2753974Y-1307504D01*
X+2763196Y-1317884D01*
X+2773691Y-1325572D01*
X+2784186Y-1330490D01*
X+2794681Y-1333296D01*
X+2805176Y-1334269D01*
X+2805772Y-1334272D01*
X+2869272Y-1270772D02*
X+2869055Y-1276019D01*
X+2867290Y-1286514D01*
X+2863598Y-1297009D01*
X+2857570Y-1307504D01*
X+2848348Y-1317884D01*
X+2837853Y-1325572D01*
X+2827358Y-1330490D01*
X+2816863Y-1333296D01*
X+2806368Y-1334269D01*
X+2805772Y-1334272D01*
X+2805772Y-1207272D02*
X+2805772Y-1334272D01*
X+2742272Y-1270772D02*
X+2869272Y-1270772D01*
X+2719272Y-3420772D02*
X+2719055Y-3415525D01*
X+2717290Y-3405030D01*
X+2713598Y-3394535D01*
X+2707570Y-3384040D01*
X+2698348Y-3373660D01*
X+2687853Y-3365972D01*
X+2677358Y-3361054D01*
X+2666863Y-3358248D01*
X+2656368Y-3357275D01*
X+2655772Y-3357272D01*
X+2592272Y-3420772D02*
X+2592489Y-3415525D01*
X+2594254Y-3405030D01*
X+2597946Y-3394535D01*
X+2603974Y-3384040D01*
X+2613196Y-3373660D01*
X+2623691Y-3365972D01*
X+2634186Y-3361054D01*
X+2644681Y-3358248D01*
X+2655176Y-3357275D01*
X+2655772Y-3357272D01*
X+2592272Y-3420772D02*
X+2592489Y-3426019D01*
X+2594254Y-3436514D01*
X+2597946Y-3447009D01*
X+2603974Y-3457504D01*
X+2613196Y-3467884D01*
X+2623691Y-3475572D01*
X+2634186Y-3480490D01*
X+2644681Y-3483296D01*
X+2655176Y-3484269D01*
X+2655772Y-3484272D01*
X+2719272Y-3420772D02*
X+2719055Y-3426019D01*
X+2717290Y-3436514D01*
X+2713598Y-3447009D01*
X+2707570Y-3457504D01*
X+2698348Y-3467884D01*
X+2687853Y-3475572D01*
X+2677358Y-3480490D01*
X+2666863Y-3483296D01*
X+2656368Y-3484269D01*
X+2655772Y-3484272D01*
X+2655772Y-3357272D02*
X+2655772Y-3484272D01*
X+2592272Y-3420772D02*
X+2719272Y-3420772D01*
X+269272Y-520772D02*
X+269055Y-515525D01*
X+267290Y-505030D01*
X+263598Y-494535D01*
X+257570Y-484040D01*
X+248348Y-473660D01*
X+237853Y-465972D01*
X+227358Y-461054D01*
X+216863Y-458248D01*
X+206368Y-457275D01*
X+205772Y-457272D01*
X+142272Y-520772D02*
X+142489Y-515525D01*
X+144254Y-505030D01*
X+147946Y-494535D01*
X+153974Y-484040D01*
X+163196Y-473660D01*
X+173691Y-465972D01*
X+184186Y-461054D01*
X+194681Y-458248D01*
X+205176Y-457275D01*
X+205772Y-457272D01*
X+142272Y-520772D02*
X+142489Y-526019D01*
X+144254Y-536514D01*
X+147946Y-547009D01*
X+153974Y-557504D01*
X+163196Y-567884D01*
X+173691Y-575572D01*
X+184186Y-580490D01*
X+194681Y-583296D01*
X+205176Y-584269D01*
X+205772Y-584272D01*
X+269272Y-520772D02*
X+269055Y-526019D01*
X+267290Y-536514D01*
X+263598Y-547009D01*
X+257570Y-557504D01*
X+248348Y-567884D01*
X+237853Y-575572D01*
X+227358Y-580490D01*
X+216863Y-583296D01*
X+206368Y-584269D01*
X+205772Y-584272D01*
X+160871Y-475871D02*
X+250673Y-565673D01*
X+160871Y-565673D02*
X+250673Y-475871D01*
X+523272Y-520772D02*
X+523055Y-515525D01*
X+521290Y-505030D01*
X+517598Y-494535D01*
X+511570Y-484040D01*
X+502348Y-473660D01*
X+491853Y-465972D01*
X+481358Y-461054D01*
X+470863Y-458248D01*
X+460368Y-457275D01*
X+459772Y-457272D01*
X+396272Y-520772D02*
X+396489Y-515525D01*
X+398254Y-505030D01*
X+401946Y-494535D01*
X+407974Y-484040D01*
X+417196Y-473660D01*
X+427691Y-465972D01*
X+438186Y-461054D01*
X+448681Y-458248D01*
X+459176Y-457275D01*
X+459772Y-457272D01*
X+396272Y-520772D02*
X+396489Y-526019D01*
X+398254Y-536514D01*
X+401946Y-547009D01*
X+407974Y-557504D01*
X+417196Y-567884D01*
X+427691Y-575572D01*
X+438186Y-580490D01*
X+448681Y-583296D01*
X+459176Y-584269D01*
X+459772Y-584272D01*
X+523272Y-520772D02*
X+523055Y-526019D01*
X+521290Y-536514D01*
X+517598Y-547009D01*
X+511570Y-557504D01*
X+502348Y-567884D01*
X+491853Y-575572D01*
X+481358Y-580490D01*
X+470863Y-583296D01*
X+460368Y-584269D01*
X+459772Y-584272D01*
X+459772Y-457272D02*
X+459772Y-584272D01*
X+396272Y-520772D02*
X+523272Y-520772D01*
X+777272Y-520772D02*
X+777055Y-515525D01*
X+775290Y-505030D01*
X+771598Y-494535D01*
X+765570Y-484040D01*
X+756348Y-473660D01*
X+745853Y-465972D01*
X+735358Y-461054D01*
X+724863Y-458248D01*
X+714368Y-457275D01*
X+713772Y-457272D01*
X+650272Y-520772D02*
X+650489Y-515525D01*
X+652254Y-505030D01*
X+655946Y-494535D01*
X+661974Y-484040D01*
X+671196Y-473660D01*
X+681691Y-465972D01*
X+692186Y-461054D01*
X+702681Y-458248D01*
X+713176Y-457275D01*
X+713772Y-457272D01*
X+650272Y-520772D02*
X+650489Y-526019D01*
X+652254Y-536514D01*
X+655946Y-547009D01*
X+661974Y-557504D01*
X+671196Y-567884D01*
X+681691Y-575572D01*
X+692186Y-580490D01*
X+702681Y-583296D01*
X+713176Y-584269D01*
X+713772Y-584272D01*
X+777272Y-520772D02*
X+777055Y-526019D01*
X+775290Y-536514D01*
X+771598Y-547009D01*
X+765570Y-557504D01*
X+756348Y-567884D01*
X+745853Y-575572D01*
X+735358Y-580490D01*
X+724863Y-583296D01*
X+714368Y-584269D01*
X+713772Y-584272D01*
X+713772Y-457272D02*
X+713772Y-584272D01*
X+650272Y-520772D02*
X+777272Y-520772D01*
X+1031272Y-520772D02*
X+1031055Y-515525D01*
X+1029290Y-505030D01*
X+1025598Y-494535D01*
X+1019570Y-484040D01*
X+1010348Y-473660D01*
X+999853Y-465972D01*
X+989358Y-461054D01*
X+978863Y-458248D01*
X+968368Y-457275D01*
X+967772Y-457272D01*
X+904272Y-520772D02*
X+904489Y-515525D01*
X+906254Y-505030D01*
X+909946Y-494535D01*
X+915974Y-484040D01*
X+925196Y-473660D01*
X+935691Y-465972D01*
X+946186Y-461054D01*
X+956681Y-458248D01*
X+967176Y-457275D01*
X+967772Y-457272D01*
X+904272Y-520772D02*
X+904489Y-526019D01*
X+906254Y-536514D01*
X+909946Y-547009D01*
X+915974Y-557504D01*
X+925196Y-567884D01*
X+935691Y-575572D01*
X+946186Y-580490D01*
X+956681Y-583296D01*
X+967176Y-584269D01*
X+967772Y-584272D01*
X+1031272Y-520772D02*
X+1031055Y-526019D01*
X+1029290Y-536514D01*
X+1025598Y-547009D01*
X+1019570Y-557504D01*
X+1010348Y-567884D01*
X+999853Y-575572D01*
X+989358Y-580490D01*
X+978863Y-583296D01*
X+968368Y-584269D01*
X+967772Y-584272D01*
X+967772Y-457272D02*
X+967772Y-584272D01*
X+904272Y-520772D02*
X+1031272Y-520772D01*
X+1285272Y-520772D02*
X+1285055Y-515525D01*
X+1283290Y-505030D01*
X+1279598Y-494535D01*
X+1273570Y-484040D01*
X+1264348Y-473660D01*
X+1253853Y-465972D01*
X+1243358Y-461054D01*
X+1232863Y-458248D01*
X+1222368Y-457275D01*
X+1221772Y-457272D01*
X+1158272Y-520772D02*
X+1158489Y-515525D01*
X+1160254Y-505030D01*
X+1163946Y-494535D01*
X+1169974Y-484040D01*
X+1179196Y-473660D01*
X+1189691Y-465972D01*
X+1200186Y-461054D01*
X+1210681Y-458248D01*
X+1221176Y-457275D01*
X+1221772Y-457272D01*
X+1158272Y-520772D02*
X+1158489Y-526019D01*
X+1160254Y-536514D01*
X+1163946Y-547009D01*
X+1169974Y-557504D01*
X+1179196Y-567884D01*
X+1189691Y-575572D01*
X+1200186Y-580490D01*
X+1210681Y-583296D01*
X+1221176Y-584269D01*
X+1221772Y-584272D01*
X+1285272Y-520772D02*
X+1285055Y-526019D01*
X+1283290Y-536514D01*
X+1279598Y-547009D01*
X+1273570Y-557504D01*
X+1264348Y-567884D01*
X+1253853Y-575572D01*
X+1243358Y-580490D01*
X+1232863Y-583296D01*
X+1222368Y-584269D01*
X+1221772Y-584272D01*
X+1221772Y-457272D02*
X+1221772Y-584272D01*
X+1158272Y-520772D02*
X+1285272Y-520772D01*
X+1539272Y-520772D02*
X+1539055Y-515525D01*
X+1537290Y-505030D01*
X+1533598Y-494535D01*
X+1527570Y-484040D01*
X+1518348Y-473660D01*
X+1507853Y-465972D01*
X+1497358Y-461054D01*
X+1486863Y-458248D01*
X+1476368Y-457275D01*
X+1475772Y-457272D01*
X+1412272Y-520772D02*
X+1412489Y-515525D01*
X+1414254Y-505030D01*
X+1417946Y-494535D01*
X+1423974Y-484040D01*
X+1433196Y-473660D01*
X+1443691Y-465972D01*
X+1454186Y-461054D01*
X+1464681Y-458248D01*
X+1475176Y-457275D01*
X+1475772Y-457272D01*
X+1412272Y-520772D02*
X+1412489Y-526019D01*
X+1414254Y-536514D01*
X+1417946Y-547009D01*
X+1423974Y-557504D01*
X+1433196Y-567884D01*
X+1443691Y-575572D01*
X+1454186Y-580490D01*
X+1464681Y-583296D01*
X+1475176Y-584269D01*
X+1475772Y-584272D01*
X+1539272Y-520772D02*
X+1539055Y-526019D01*
X+1537290Y-536514D01*
X+1533598Y-547009D01*
X+1527570Y-557504D01*
X+1518348Y-567884D01*
X+1507853Y-575572D01*
X+1497358Y-580490D01*
X+1486863Y-583296D01*
X+1476368Y-584269D01*
X+1475772Y-584272D01*
X+1475772Y-457272D02*
X+1475772Y-584272D01*
X+1412272Y-520772D02*
X+1539272Y-520772D01*
X+1793272Y-520772D02*
X+1793055Y-515525D01*
X+1791290Y-505030D01*
X+1787598Y-494535D01*
X+1781570Y-484040D01*
X+1772348Y-473660D01*
X+1761853Y-465972D01*
X+1751358Y-461054D01*
X+1740863Y-458248D01*
X+1730368Y-457275D01*
X+1729772Y-457272D01*
X+1666272Y-520772D02*
X+1666489Y-515525D01*
X+1668254Y-505030D01*
X+1671946Y-494535D01*
X+1677974Y-484040D01*
X+1687196Y-473660D01*
X+1697691Y-465972D01*
X+1708186Y-461054D01*
X+1718681Y-458248D01*
X+1729176Y-457275D01*
X+1729772Y-457272D01*
X+1666272Y-520772D02*
X+1666489Y-526019D01*
X+1668254Y-536514D01*
X+1671946Y-547009D01*
X+1677974Y-557504D01*
X+1687196Y-567884D01*
X+1697691Y-575572D01*
X+1708186Y-580490D01*
X+1718681Y-583296D01*
X+1729176Y-584269D01*
X+1729772Y-584272D01*
X+1793272Y-520772D02*
X+1793055Y-526019D01*
X+1791290Y-536514D01*
X+1787598Y-547009D01*
X+1781570Y-557504D01*
X+1772348Y-567884D01*
X+1761853Y-575572D01*
X+1751358Y-580490D01*
X+1740863Y-583296D01*
X+1730368Y-584269D01*
X+1729772Y-584272D01*
X+1729772Y-457272D02*
X+1729772Y-584272D01*
X+1666272Y-520772D02*
X+1793272Y-520772D01*
X+2047272Y-520772D02*
X+2047055Y-515525D01*
X+2045290Y-505030D01*
X+2041598Y-494535D01*
X+2035570Y-484040D01*
X+2026348Y-473660D01*
X+2015853Y-465972D01*
X+2005358Y-461054D01*
X+1994863Y-458248D01*
X+1984368Y-457275D01*
X+1983772Y-457272D01*
X+1920272Y-520772D02*
X+1920489Y-515525D01*
X+1922254Y-505030D01*
X+1925946Y-494535D01*
X+1931974Y-484040D01*
X+1941196Y-473660D01*
X+1951691Y-465972D01*
X+1962186Y-461054D01*
X+1972681Y-458248D01*
X+1983176Y-457275D01*
X+1983772Y-457272D01*
X+1920272Y-520772D02*
X+1920489Y-526019D01*
X+1922254Y-536514D01*
X+1925946Y-547009D01*
X+1931974Y-557504D01*
X+1941196Y-567884D01*
X+1951691Y-575572D01*
X+1962186Y-580490D01*
X+1972681Y-583296D01*
X+1983176Y-584269D01*
X+1983772Y-584272D01*
X+2047272Y-520772D02*
X+2047055Y-526019D01*
X+2045290Y-536514D01*
X+2041598Y-547009D01*
X+2035570Y-557504D01*
X+2026348Y-567884D01*
X+2015853Y-575572D01*
X+2005358Y-580490D01*
X+1994863Y-583296D01*
X+1984368Y-584269D01*
X+1983772Y-584272D01*
X+1983772Y-457272D02*
X+1983772Y-584272D01*
X+1920272Y-520772D02*
X+2047272Y-520772D01*
X+2301272Y-520772D02*
X+2301055Y-515525D01*
X+2299290Y-505030D01*
X+2295598Y-494535D01*
X+2289570Y-484040D01*
X+2280348Y-473660D01*
X+2269853Y-465972D01*
X+2259358Y-461054D01*
X+2248863Y-458248D01*
X+2238368Y-457275D01*
X+2237772Y-457272D01*
X+2174272Y-520772D02*
X+2174489Y-515525D01*
X+2176254Y-505030D01*
X+2179946Y-494535D01*
X+2185974Y-484040D01*
X+2195196Y-473660D01*
X+2205691Y-465972D01*
X+2216186Y-461054D01*
X+2226681Y-458248D01*
X+2237176Y-457275D01*
X+2237772Y-457272D01*
X+2174272Y-520772D02*
X+2174489Y-526019D01*
X+2176254Y-536514D01*
X+2179946Y-547009D01*
X+2185974Y-557504D01*
X+2195196Y-567884D01*
X+2205691Y-575572D01*
X+2216186Y-580490D01*
X+2226681Y-583296D01*
X+2237176Y-584269D01*
X+2237772Y-584272D01*
X+2301272Y-520772D02*
X+2301055Y-526019D01*
X+2299290Y-536514D01*
X+2295598Y-547009D01*
X+2289570Y-557504D01*
X+2280348Y-567884D01*
X+2269853Y-575572D01*
X+2259358Y-580490D01*
X+2248863Y-583296D01*
X+2238368Y-584269D01*
X+2237772Y-584272D01*
X+2237772Y-457272D02*
X+2237772Y-584272D01*
X+2174272Y-520772D02*
X+2301272Y-520772D01*
X+2555272Y-520772D02*
X+2555055Y-515525D01*
X+2553290Y-505030D01*
X+2549598Y-494535D01*
X+2543570Y-484040D01*
X+2534348Y-473660D01*
X+2523853Y-465972D01*
X+2513358Y-461054D01*
X+2502863Y-458248D01*
X+2492368Y-457275D01*
X+2491772Y-457272D01*
X+2428272Y-520772D02*
X+2428489Y-515525D01*
X+2430254Y-505030D01*
X+2433946Y-494535D01*
X+2439974Y-484040D01*
X+2449196Y-473660D01*
X+2459691Y-465972D01*
X+2470186Y-461054D01*
X+2480681Y-458248D01*
X+2491176Y-457275D01*
X+2491772Y-457272D01*
X+2428272Y-520772D02*
X+2428489Y-526019D01*
X+2430254Y-536514D01*
X+2433946Y-547009D01*
X+2439974Y-557504D01*
X+2449196Y-567884D01*
X+2459691Y-575572D01*
X+2470186Y-580490D01*
X+2480681Y-583296D01*
X+2491176Y-584269D01*
X+2491772Y-584272D01*
X+2555272Y-520772D02*
X+2555055Y-526019D01*
X+2553290Y-536514D01*
X+2549598Y-547009D01*
X+2543570Y-557504D01*
X+2534348Y-567884D01*
X+2523853Y-575572D01*
X+2513358Y-580490D01*
X+2502863Y-583296D01*
X+2492368Y-584269D01*
X+2491772Y-584272D01*
X+2491772Y-457272D02*
X+2491772Y-584272D01*
X+2428272Y-520772D02*
X+2555272Y-520772D01*
X+2809272Y-520772D02*
X+2809055Y-515525D01*
X+2807290Y-505030D01*
X+2803598Y-494535D01*
X+2797570Y-484040D01*
X+2788348Y-473660D01*
X+2777853Y-465972D01*
X+2767358Y-461054D01*
X+2756863Y-458248D01*
X+2746368Y-457275D01*
X+2745772Y-457272D01*
X+2682272Y-520772D02*
X+2682489Y-515525D01*
X+2684254Y-505030D01*
X+2687946Y-494535D01*
X+2693974Y-484040D01*
X+2703196Y-473660D01*
X+2713691Y-465972D01*
X+2724186Y-461054D01*
X+2734681Y-458248D01*
X+2745176Y-457275D01*
X+2745772Y-457272D01*
X+2682272Y-520772D02*
X+2682489Y-526019D01*
X+2684254Y-536514D01*
X+2687946Y-547009D01*
X+2693974Y-557504D01*
X+2703196Y-567884D01*
X+2713691Y-575572D01*
X+2724186Y-580490D01*
X+2734681Y-583296D01*
X+2745176Y-584269D01*
X+2745772Y-584272D01*
X+2809272Y-520772D02*
X+2809055Y-526019D01*
X+2807290Y-536514D01*
X+2803598Y-547009D01*
X+2797570Y-557504D01*
X+2788348Y-567884D01*
X+2777853Y-575572D01*
X+2767358Y-580490D01*
X+2756863Y-583296D01*
X+2746368Y-584269D01*
X+2745772Y-584272D01*
X+2745772Y-457272D02*
X+2745772Y-584272D01*
X+2682272Y-520772D02*
X+2809272Y-520772D01*
X+3063272Y-520772D02*
X+3063055Y-515525D01*
X+3061290Y-505030D01*
X+3057598Y-494535D01*
X+3051570Y-484040D01*
X+3042348Y-473660D01*
X+3031853Y-465972D01*
X+3021358Y-461054D01*
X+3010863Y-458248D01*
X+3000368Y-457275D01*
X+2999772Y-457272D01*
X+2936272Y-520772D02*
X+2936489Y-515525D01*
X+2938254Y-505030D01*
X+2941946Y-494535D01*
X+2947974Y-484040D01*
X+2957196Y-473660D01*
X+2967691Y-465972D01*
X+2978186Y-461054D01*
X+2988681Y-458248D01*
X+2999176Y-457275D01*
X+2999772Y-457272D01*
X+2936272Y-520772D02*
X+2936489Y-526019D01*
X+2938254Y-536514D01*
X+2941946Y-547009D01*
X+2947974Y-557504D01*
X+2957196Y-567884D01*
X+2967691Y-575572D01*
X+2978186Y-580490D01*
X+2988681Y-583296D01*
X+2999176Y-584269D01*
X+2999772Y-584272D01*
X+3063272Y-520772D02*
X+3063055Y-526019D01*
X+3061290Y-536514D01*
X+3057598Y-547009D01*
X+3051570Y-557504D01*
X+3042348Y-567884D01*
X+3031853Y-575572D01*
X+3021358Y-580490D01*
X+3010863Y-583296D01*
X+3000368Y-584269D01*
X+2999772Y-584272D01*
X+2999772Y-457272D02*
X+2999772Y-584272D01*
X+2936272Y-520772D02*
X+3063272Y-520772D01*
X+3317272Y-520772D02*
X+3317055Y-515525D01*
X+3315290Y-505030D01*
X+3311598Y-494535D01*
X+3305570Y-484040D01*
X+3296348Y-473660D01*
X+3285853Y-465972D01*
X+3275358Y-461054D01*
X+3264863Y-458248D01*
X+3254368Y-457275D01*
X+3253772Y-457272D01*
X+3190272Y-520772D02*
X+3190489Y-515525D01*
X+3192254Y-505030D01*
X+3195946Y-494535D01*
X+3201974Y-484040D01*
X+3211196Y-473660D01*
X+3221691Y-465972D01*
X+3232186Y-461054D01*
X+3242681Y-458248D01*
X+3253176Y-457275D01*
X+3253772Y-457272D01*
X+3190272Y-520772D02*
X+3190489Y-526019D01*
X+3192254Y-536514D01*
X+3195946Y-547009D01*
X+3201974Y-557504D01*
X+3211196Y-567884D01*
X+3221691Y-575572D01*
X+3232186Y-580490D01*
X+3242681Y-583296D01*
X+3253176Y-584269D01*
X+3253772Y-584272D01*
X+3317272Y-520772D02*
X+3317055Y-526019D01*
X+3315290Y-536514D01*
X+3311598Y-547009D01*
X+3305570Y-557504D01*
X+3296348Y-567884D01*
X+3285853Y-575572D01*
X+3275358Y-580490D01*
X+3264863Y-583296D01*
X+3254368Y-584269D01*
X+3253772Y-584272D01*
X+3253772Y-457272D02*
X+3253772Y-584272D01*
X+3190272Y-520772D02*
X+3317272Y-520772D01*
X+3571272Y-520772D02*
X+3571055Y-515525D01*
X+3569290Y-505030D01*
X+3565598Y-494535D01*
X+3559570Y-484040D01*
X+3550348Y-473660D01*
X+3539853Y-465972D01*
X+3529358Y-461054D01*
X+3518863Y-458248D01*
X+3508368Y-457275D01*
X+3507772Y-457272D01*
X+3444272Y-520772D02*
X+3444489Y-515525D01*
X+3446254Y-505030D01*
X+3449946Y-494535D01*
X+3455974Y-484040D01*
X+3465196Y-473660D01*
X+3475691Y-465972D01*
X+3486186Y-461054D01*
X+3496681Y-458248D01*
X+3507176Y-457275D01*
X+3507772Y-457272D01*
X+3444272Y-520772D02*
X+3444489Y-526019D01*
X+3446254Y-536514D01*
X+3449946Y-547009D01*
X+3455974Y-557504D01*
X+3465196Y-567884D01*
X+3475691Y-575572D01*
X+3486186Y-580490D01*
X+3496681Y-583296D01*
X+3507176Y-584269D01*
X+3507772Y-584272D01*
X+3571272Y-520772D02*
X+3571055Y-526019D01*
X+3569290Y-536514D01*
X+3565598Y-547009D01*
X+3559570Y-557504D01*
X+3550348Y-567884D01*
X+3539853Y-575572D01*
X+3529358Y-580490D01*
X+3518863Y-583296D01*
X+3508368Y-584269D01*
X+3507772Y-584272D01*
X+3507772Y-457272D02*
X+3507772Y-584272D01*
X+3444272Y-520772D02*
X+3571272Y-520772D01*
X+269272Y-4070772D02*
X+269055Y-4065525D01*
X+267290Y-4055030D01*
X+263598Y-4044535D01*
X+257570Y-4034040D01*
X+248348Y-4023660D01*
X+237853Y-4015972D01*
X+227358Y-4011054D01*
X+216863Y-4008248D01*
X+206368Y-4007275D01*
X+205772Y-4007272D01*
X+142272Y-4070772D02*
X+142489Y-4065525D01*
X+144254Y-4055030D01*
X+147946Y-4044535D01*
X+153974Y-4034040D01*
X+163196Y-4023660D01*
X+173691Y-4015972D01*
X+184186Y-4011054D01*
X+194681Y-4008248D01*
X+205176Y-4007275D01*
X+205772Y-4007272D01*
X+142272Y-4070772D02*
X+142489Y-4076019D01*
X+144254Y-4086514D01*
X+147946Y-4097009D01*
X+153974Y-4107504D01*
X+163196Y-4117884D01*
X+173691Y-4125572D01*
X+184186Y-4130490D01*
X+194681Y-4133296D01*
X+205176Y-4134269D01*
X+205772Y-4134272D01*
X+269272Y-4070772D02*
X+269055Y-4076019D01*
X+267290Y-4086514D01*
X+263598Y-4097009D01*
X+257570Y-4107504D01*
X+248348Y-4117884D01*
X+237853Y-4125572D01*
X+227358Y-4130490D01*
X+216863Y-4133296D01*
X+206368Y-4134269D01*
X+205772Y-4134272D01*
X+160871Y-4025871D02*
X+250673Y-4115673D01*
X+160871Y-4115673D02*
X+250673Y-4025871D01*
X+523272Y-4070772D02*
X+523055Y-4065525D01*
X+521290Y-4055030D01*
X+517598Y-4044535D01*
X+511570Y-4034040D01*
X+502348Y-4023660D01*
X+491853Y-4015972D01*
X+481358Y-4011054D01*
X+470863Y-4008248D01*
X+460368Y-4007275D01*
X+459772Y-4007272D01*
X+396272Y-4070772D02*
X+396489Y-4065525D01*
X+398254Y-4055030D01*
X+401946Y-4044535D01*
X+407974Y-4034040D01*
X+417196Y-4023660D01*
X+427691Y-4015972D01*
X+438186Y-4011054D01*
X+448681Y-4008248D01*
X+459176Y-4007275D01*
X+459772Y-4007272D01*
X+396272Y-4070772D02*
X+396489Y-4076019D01*
X+398254Y-4086514D01*
X+401946Y-4097009D01*
X+407974Y-4107504D01*
X+417196Y-4117884D01*
X+427691Y-4125572D01*
X+438186Y-4130490D01*
X+448681Y-4133296D01*
X+459176Y-4134269D01*
X+459772Y-4134272D01*
X+523272Y-4070772D02*
X+523055Y-4076019D01*
X+521290Y-4086514D01*
X+517598Y-4097009D01*
X+511570Y-4107504D01*
X+502348Y-4117884D01*
X+491853Y-4125572D01*
X+481358Y-4130490D01*
X+470863Y-4133296D01*
X+460368Y-4134269D01*
X+459772Y-4134272D01*
X+459772Y-4007272D02*
X+459772Y-4134272D01*
X+396272Y-4070772D02*
X+523272Y-4070772D01*
X+777272Y-4070772D02*
X+777055Y-4065525D01*
X+775290Y-4055030D01*
X+771598Y-4044535D01*
X+765570Y-4034040D01*
X+756348Y-4023660D01*
X+745853Y-4015972D01*
X+735358Y-4011054D01*
X+724863Y-4008248D01*
X+714368Y-4007275D01*
X+713772Y-4007272D01*
X+650272Y-4070772D02*
X+650489Y-4065525D01*
X+652254Y-4055030D01*
X+655946Y-4044535D01*
X+661974Y-4034040D01*
X+671196Y-4023660D01*
X+681691Y-4015972D01*
X+692186Y-4011054D01*
X+702681Y-4008248D01*
X+713176Y-4007275D01*
X+713772Y-4007272D01*
X+650272Y-4070772D02*
X+650489Y-4076019D01*
X+652254Y-4086514D01*
X+655946Y-4097009D01*
X+661974Y-4107504D01*
X+671196Y-4117884D01*
X+681691Y-4125572D01*
X+692186Y-4130490D01*
X+702681Y-4133296D01*
X+713176Y-4134269D01*
X+713772Y-4134272D01*
X+777272Y-4070772D02*
X+777055Y-4076019D01*
X+775290Y-4086514D01*
X+771598Y-4097009D01*
X+765570Y-4107504D01*
X+756348Y-4117884D01*
X+745853Y-4125572D01*
X+735358Y-4130490D01*
X+724863Y-4133296D01*
X+714368Y-4134269D01*
X+713772Y-4134272D01*
X+713772Y-4007272D02*
X+713772Y-4134272D01*
X+650272Y-4070772D02*
X+777272Y-4070772D01*
X+1031272Y-4070772D02*
X+1031055Y-4065525D01*
X+1029290Y-4055030D01*
X+1025598Y-4044535D01*
X+1019570Y-4034040D01*
X+1010348Y-4023660D01*
X+999853Y-4015972D01*
X+989358Y-4011054D01*
X+978863Y-4008248D01*
X+968368Y-4007275D01*
X+967772Y-4007272D01*
X+904272Y-4070772D02*
X+904489Y-4065525D01*
X+906254Y-4055030D01*
X+909946Y-4044535D01*
X+915974Y-4034040D01*
X+925196Y-4023660D01*
X+935691Y-4015972D01*
X+946186Y-4011054D01*
X+956681Y-4008248D01*
X+967176Y-4007275D01*
X+967772Y-4007272D01*
X+904272Y-4070772D02*
X+904489Y-4076019D01*
X+906254Y-4086514D01*
X+909946Y-4097009D01*
X+915974Y-4107504D01*
X+925196Y-4117884D01*
X+935691Y-4125572D01*
X+946186Y-4130490D01*
X+956681Y-4133296D01*
X+967176Y-4134269D01*
X+967772Y-4134272D01*
X+1031272Y-4070772D02*
X+1031055Y-4076019D01*
X+1029290Y-4086514D01*
X+1025598Y-4097009D01*
X+1019570Y-4107504D01*
X+1010348Y-4117884D01*
X+999853Y-4125572D01*
X+989358Y-4130490D01*
X+978863Y-4133296D01*
X+968368Y-4134269D01*
X+967772Y-4134272D01*
X+967772Y-4007272D02*
X+967772Y-4134272D01*
X+904272Y-4070772D02*
X+1031272Y-4070772D01*
X+1285272Y-4070772D02*
X+1285055Y-4065525D01*
X+1283290Y-4055030D01*
X+1279598Y-4044535D01*
X+1273570Y-4034040D01*
X+1264348Y-4023660D01*
X+1253853Y-4015972D01*
X+1243358Y-4011054D01*
X+1232863Y-4008248D01*
X+1222368Y-4007275D01*
X+1221772Y-4007272D01*
X+1158272Y-4070772D02*
X+1158489Y-4065525D01*
X+1160254Y-4055030D01*
X+1163946Y-4044535D01*
X+1169974Y-4034040D01*
X+1179196Y-4023660D01*
X+1189691Y-4015972D01*
X+1200186Y-4011054D01*
X+1210681Y-4008248D01*
X+1221176Y-4007275D01*
X+1221772Y-4007272D01*
X+1158272Y-4070772D02*
X+1158489Y-4076019D01*
X+1160254Y-4086514D01*
X+1163946Y-4097009D01*
X+1169974Y-4107504D01*
X+1179196Y-4117884D01*
X+1189691Y-4125572D01*
X+1200186Y-4130490D01*
X+1210681Y-4133296D01*
X+1221176Y-4134269D01*
X+1221772Y-4134272D01*
X+1285272Y-4070772D02*
X+1285055Y-4076019D01*
X+1283290Y-4086514D01*
X+1279598Y-4097009D01*
X+1273570Y-4107504D01*
X+1264348Y-4117884D01*
X+1253853Y-4125572D01*
X+1243358Y-4130490D01*
X+1232863Y-4133296D01*
X+1222368Y-4134269D01*
X+1221772Y-4134272D01*
X+1221772Y-4007272D02*
X+1221772Y-4134272D01*
X+1158272Y-4070772D02*
X+1285272Y-4070772D01*
X+1539272Y-4070772D02*
X+1539055Y-4065525D01*
X+1537290Y-4055030D01*
X+1533598Y-4044535D01*
X+1527570Y-4034040D01*
X+1518348Y-4023660D01*
X+1507853Y-4015972D01*
X+1497358Y-4011054D01*
X+1486863Y-4008248D01*
X+1476368Y-4007275D01*
X+1475772Y-4007272D01*
X+1412272Y-4070772D02*
X+1412489Y-4065525D01*
X+1414254Y-4055030D01*
X+1417946Y-4044535D01*
X+1423974Y-4034040D01*
X+1433196Y-4023660D01*
X+1443691Y-4015972D01*
X+1454186Y-4011054D01*
X+1464681Y-4008248D01*
X+1475176Y-4007275D01*
X+1475772Y-4007272D01*
X+1412272Y-4070772D02*
X+1412489Y-4076019D01*
X+1414254Y-4086514D01*
X+1417946Y-4097009D01*
X+1423974Y-4107504D01*
X+1433196Y-4117884D01*
X+1443691Y-4125572D01*
X+1454186Y-4130490D01*
X+1464681Y-4133296D01*
X+1475176Y-4134269D01*
X+1475772Y-4134272D01*
X+1539272Y-4070772D02*
X+1539055Y-4076019D01*
X+1537290Y-4086514D01*
X+1533598Y-4097009D01*
X+1527570Y-4107504D01*
X+1518348Y-4117884D01*
X+1507853Y-4125572D01*
X+1497358Y-4130490D01*
X+1486863Y-4133296D01*
X+1476368Y-4134269D01*
X+1475772Y-4134272D01*
X+1475772Y-4007272D02*
X+1475772Y-4134272D01*
X+1412272Y-4070772D02*
X+1539272Y-4070772D01*
X+1793272Y-4070772D02*
X+1793055Y-4065525D01*
X+1791290Y-4055030D01*
X+1787598Y-4044535D01*
X+1781570Y-4034040D01*
X+1772348Y-4023660D01*
X+1761853Y-4015972D01*
X+1751358Y-4011054D01*
X+1740863Y-4008248D01*
X+1730368Y-4007275D01*
X+1729772Y-4007272D01*
X+1666272Y-4070772D02*
X+1666489Y-4065525D01*
X+1668254Y-4055030D01*
X+1671946Y-4044535D01*
X+1677974Y-4034040D01*
X+1687196Y-4023660D01*
X+1697691Y-4015972D01*
X+1708186Y-4011054D01*
X+1718681Y-4008248D01*
X+1729176Y-4007275D01*
X+1729772Y-4007272D01*
X+1666272Y-4070772D02*
X+1666489Y-4076019D01*
X+1668254Y-4086514D01*
X+1671946Y-4097009D01*
X+1677974Y-4107504D01*
X+1687196Y-4117884D01*
X+1697691Y-4125572D01*
X+1708186Y-4130490D01*
X+1718681Y-4133296D01*
X+1729176Y-4134269D01*
X+1729772Y-4134272D01*
X+1793272Y-4070772D02*
X+1793055Y-4076019D01*
X+1791290Y-4086514D01*
X+1787598Y-4097009D01*
X+1781570Y-4107504D01*
X+1772348Y-4117884D01*
X+1761853Y-4125572D01*
X+1751358Y-4130490D01*
X+1740863Y-4133296D01*
X+1730368Y-4134269D01*
X+1729772Y-4134272D01*
X+1729772Y-4007272D02*
X+1729772Y-4134272D01*
X+1666272Y-4070772D02*
X+1793272Y-4070772D01*
X+2047272Y-4070772D02*
X+2047055Y-4065525D01*
X+2045290Y-4055030D01*
X+2041598Y-4044535D01*
X+2035570Y-4034040D01*
X+2026348Y-4023660D01*
X+2015853Y-4015972D01*
X+2005358Y-4011054D01*
X+1994863Y-4008248D01*
X+1984368Y-4007275D01*
X+1983772Y-4007272D01*
X+1920272Y-4070772D02*
X+1920489Y-4065525D01*
X+1922254Y-4055030D01*
X+1925946Y-4044535D01*
X+1931974Y-4034040D01*
X+1941196Y-4023660D01*
X+1951691Y-4015972D01*
X+1962186Y-4011054D01*
X+1972681Y-4008248D01*
X+1983176Y-4007275D01*
X+1983772Y-4007272D01*
X+1920272Y-4070772D02*
X+1920489Y-4076019D01*
X+1922254Y-4086514D01*
X+1925946Y-4097009D01*
X+1931974Y-4107504D01*
X+1941196Y-4117884D01*
X+1951691Y-4125572D01*
X+1962186Y-4130490D01*
X+1972681Y-4133296D01*
X+1983176Y-4134269D01*
X+1983772Y-4134272D01*
X+2047272Y-4070772D02*
X+2047055Y-4076019D01*
X+2045290Y-4086514D01*
X+2041598Y-4097009D01*
X+2035570Y-4107504D01*
X+2026348Y-4117884D01*
X+2015853Y-4125572D01*
X+2005358Y-4130490D01*
X+1994863Y-4133296D01*
X+1984368Y-4134269D01*
X+1983772Y-4134272D01*
X+1983772Y-4007272D02*
X+1983772Y-4134272D01*
X+1920272Y-4070772D02*
X+2047272Y-4070772D01*
X+2301272Y-4070772D02*
X+2301055Y-4065525D01*
X+2299290Y-4055030D01*
X+2295598Y-4044535D01*
X+2289570Y-4034040D01*
X+2280348Y-4023660D01*
X+2269853Y-4015972D01*
X+2259358Y-4011054D01*
X+2248863Y-4008248D01*
X+2238368Y-4007275D01*
X+2237772Y-4007272D01*
X+2174272Y-4070772D02*
X+2174489Y-4065525D01*
X+2176254Y-4055030D01*
X+2179946Y-4044535D01*
X+2185974Y-4034040D01*
X+2195196Y-4023660D01*
X+2205691Y-4015972D01*
X+2216186Y-4011054D01*
X+2226681Y-4008248D01*
X+2237176Y-4007275D01*
X+2237772Y-4007272D01*
X+2174272Y-4070772D02*
X+2174489Y-4076019D01*
X+2176254Y-4086514D01*
X+2179946Y-4097009D01*
X+2185974Y-4107504D01*
X+2195196Y-4117884D01*
X+2205691Y-4125572D01*
X+2216186Y-4130490D01*
X+2226681Y-4133296D01*
X+2237176Y-4134269D01*
X+2237772Y-4134272D01*
X+2301272Y-4070772D02*
X+2301055Y-4076019D01*
X+2299290Y-4086514D01*
X+2295598Y-4097009D01*
X+2289570Y-4107504D01*
X+2280348Y-4117884D01*
X+2269853Y-4125572D01*
X+2259358Y-4130490D01*
X+2248863Y-4133296D01*
X+2238368Y-4134269D01*
X+2237772Y-4134272D01*
X+2237772Y-4007272D02*
X+2237772Y-4134272D01*
X+2174272Y-4070772D02*
X+2301272Y-4070772D01*
X+2555272Y-4070772D02*
X+2555055Y-4065525D01*
X+2553290Y-4055030D01*
X+2549598Y-4044535D01*
X+2543570Y-4034040D01*
X+2534348Y-4023660D01*
X+2523853Y-4015972D01*
X+2513358Y-4011054D01*
X+2502863Y-4008248D01*
X+2492368Y-4007275D01*
X+2491772Y-4007272D01*
X+2428272Y-4070772D02*
X+2428489Y-4065525D01*
X+2430254Y-4055030D01*
X+2433946Y-4044535D01*
X+2439974Y-4034040D01*
X+2449196Y-4023660D01*
X+2459691Y-4015972D01*
X+2470186Y-4011054D01*
X+2480681Y-4008248D01*
X+2491176Y-4007275D01*
X+2491772Y-4007272D01*
X+2428272Y-4070772D02*
X+2428489Y-4076019D01*
X+2430254Y-4086514D01*
X+2433946Y-4097009D01*
X+2439974Y-4107504D01*
X+2449196Y-4117884D01*
X+2459691Y-4125572D01*
X+2470186Y-4130490D01*
X+2480681Y-4133296D01*
X+2491176Y-4134269D01*
X+2491772Y-4134272D01*
X+2555272Y-4070772D02*
X+2555055Y-4076019D01*
X+2553290Y-4086514D01*
X+2549598Y-4097009D01*
X+2543570Y-4107504D01*
X+2534348Y-4117884D01*
X+2523853Y-4125572D01*
X+2513358Y-4130490D01*
X+2502863Y-4133296D01*
X+2492368Y-4134269D01*
X+2491772Y-4134272D01*
X+2491772Y-4007272D02*
X+2491772Y-4134272D01*
X+2428272Y-4070772D02*
X+2555272Y-4070772D01*
X+2809272Y-4070772D02*
X+2809055Y-4065525D01*
X+2807290Y-4055030D01*
X+2803598Y-4044535D01*
X+2797570Y-4034040D01*
X+2788348Y-4023660D01*
X+2777853Y-4015972D01*
X+2767358Y-4011054D01*
X+2756863Y-4008248D01*
X+2746368Y-4007275D01*
X+2745772Y-4007272D01*
X+2682272Y-4070772D02*
X+2682489Y-4065525D01*
X+2684254Y-4055030D01*
X+2687946Y-4044535D01*
X+2693974Y-4034040D01*
X+2703196Y-4023660D01*
X+2713691Y-4015972D01*
X+2724186Y-4011054D01*
X+2734681Y-4008248D01*
X+2745176Y-4007275D01*
X+2745772Y-4007272D01*
X+2682272Y-4070772D02*
X+2682489Y-4076019D01*
X+2684254Y-4086514D01*
X+2687946Y-4097009D01*
X+2693974Y-4107504D01*
X+2703196Y-4117884D01*
X+2713691Y-4125572D01*
X+2724186Y-4130490D01*
X+2734681Y-4133296D01*
X+2745176Y-4134269D01*
X+2745772Y-4134272D01*
X+2809272Y-4070772D02*
X+2809055Y-4076019D01*
X+2807290Y-4086514D01*
X+2803598Y-4097009D01*
X+2797570Y-4107504D01*
X+2788348Y-4117884D01*
X+2777853Y-4125572D01*
X+2767358Y-4130490D01*
X+2756863Y-4133296D01*
X+2746368Y-4134269D01*
X+2745772Y-4134272D01*
X+2745772Y-4007272D02*
X+2745772Y-4134272D01*
X+2682272Y-4070772D02*
X+2809272Y-4070772D01*
X+3063272Y-4070772D02*
X+3063055Y-4065525D01*
X+3061290Y-4055030D01*
X+3057598Y-4044535D01*
X+3051570Y-4034040D01*
X+3042348Y-4023660D01*
X+3031853Y-4015972D01*
X+3021358Y-4011054D01*
X+3010863Y-4008248D01*
X+3000368Y-4007275D01*
X+2999772Y-4007272D01*
X+2936272Y-4070772D02*
X+2936489Y-4065525D01*
X+2938254Y-4055030D01*
X+2941946Y-4044535D01*
X+2947974Y-4034040D01*
X+2957196Y-4023660D01*
X+2967691Y-4015972D01*
X+2978186Y-4011054D01*
X+2988681Y-4008248D01*
X+2999176Y-4007275D01*
X+2999772Y-4007272D01*
X+2936272Y-4070772D02*
X+2936489Y-4076019D01*
X+2938254Y-4086514D01*
X+2941946Y-4097009D01*
X+2947974Y-4107504D01*
X+2957196Y-4117884D01*
X+2967691Y-4125572D01*
X+2978186Y-4130490D01*
X+2988681Y-4133296D01*
X+2999176Y-4134269D01*
X+2999772Y-4134272D01*
X+3063272Y-4070772D02*
X+3063055Y-4076019D01*
X+3061290Y-4086514D01*
X+3057598Y-4097009D01*
X+3051570Y-4107504D01*
X+3042348Y-4117884D01*
X+3031853Y-4125572D01*
X+3021358Y-4130490D01*
X+3010863Y-4133296D01*
X+3000368Y-4134269D01*
X+2999772Y-4134272D01*
X+2999772Y-4007272D02*
X+2999772Y-4134272D01*
X+2936272Y-4070772D02*
X+3063272Y-4070772D01*
X+3317272Y-4070772D02*
X+3317055Y-4065525D01*
X+3315290Y-4055030D01*
X+3311598Y-4044535D01*
X+3305570Y-4034040D01*
X+3296348Y-4023660D01*
X+3285853Y-4015972D01*
X+3275358Y-4011054D01*
X+3264863Y-4008248D01*
X+3254368Y-4007275D01*
X+3253772Y-4007272D01*
X+3190272Y-4070772D02*
X+3190489Y-4065525D01*
X+3192254Y-4055030D01*
X+3195946Y-4044535D01*
X+3201974Y-4034040D01*
X+3211196Y-4023660D01*
X+3221691Y-4015972D01*
X+3232186Y-4011054D01*
X+3242681Y-4008248D01*
X+3253176Y-4007275D01*
X+3253772Y-4007272D01*
X+3190272Y-4070772D02*
X+3190489Y-4076019D01*
X+3192254Y-4086514D01*
X+3195946Y-4097009D01*
X+3201974Y-4107504D01*
X+3211196Y-4117884D01*
X+3221691Y-4125572D01*
X+3232186Y-4130490D01*
X+3242681Y-4133296D01*
X+3253176Y-4134269D01*
X+3253772Y-4134272D01*
X+3317272Y-4070772D02*
X+3317055Y-4076019D01*
X+3315290Y-4086514D01*
X+3311598Y-4097009D01*
X+3305570Y-4107504D01*
X+3296348Y-4117884D01*
X+3285853Y-4125572D01*
X+3275358Y-4130490D01*
X+3264863Y-4133296D01*
X+3254368Y-4134269D01*
X+3253772Y-4134272D01*
X+3253772Y-4007272D02*
X+3253772Y-4134272D01*
X+3190272Y-4070772D02*
X+3317272Y-4070772D01*
X+3571272Y-4070772D02*
X+3571055Y-4065525D01*
X+3569290Y-4055030D01*
X+3565598Y-4044535D01*
X+3559570Y-4034040D01*
X+3550348Y-4023660D01*
X+3539853Y-4015972D01*
X+3529358Y-4011054D01*
X+3518863Y-4008248D01*
X+3508368Y-4007275D01*
X+3507772Y-4007272D01*
X+3444272Y-4070772D02*
X+3444489Y-4065525D01*
X+3446254Y-4055030D01*
X+3449946Y-4044535D01*
X+3455974Y-4034040D01*
X+3465196Y-4023660D01*
X+3475691Y-4015972D01*
X+3486186Y-4011054D01*
X+3496681Y-4008248D01*
X+3507176Y-4007275D01*
X+3507772Y-4007272D01*
X+3444272Y-4070772D02*
X+3444489Y-4076019D01*
X+3446254Y-4086514D01*
X+3449946Y-4097009D01*
X+3455974Y-4107504D01*
X+3465196Y-4117884D01*
X+3475691Y-4125572D01*
X+3486186Y-4130490D01*
X+3496681Y-4133296D01*
X+3507176Y-4134269D01*
X+3507772Y-4134272D01*
X+3571272Y-4070772D02*
X+3571055Y-4076019D01*
X+3569290Y-4086514D01*
X+3565598Y-4097009D01*
X+3559570Y-4107504D01*
X+3550348Y-4117884D01*
X+3539853Y-4125572D01*
X+3529358Y-4130490D01*
X+3518863Y-4133296D01*
X+3508368Y-4134269D01*
X+3507772Y-4134272D01*
X+3507772Y-4007272D02*
X+3507772Y-4134272D01*
X+3444272Y-4070772D02*
X+3571272Y-4070772D01*
X+569272Y-3420772D02*
X+569055Y-3415525D01*
X+567290Y-3405030D01*
X+563598Y-3394535D01*
X+557570Y-3384040D01*
X+548348Y-3373660D01*
X+537853Y-3365972D01*
X+527358Y-3361054D01*
X+516863Y-3358248D01*
X+506368Y-3357275D01*
X+505772Y-3357272D01*
X+442272Y-3420772D02*
X+442489Y-3415525D01*
X+444254Y-3405030D01*
X+447946Y-3394535D01*
X+453974Y-3384040D01*
X+463196Y-3373660D01*
X+473691Y-3365972D01*
X+484186Y-3361054D01*
X+494681Y-3358248D01*
X+505176Y-3357275D01*
X+505772Y-3357272D01*
X+442272Y-3420772D02*
X+442489Y-3426019D01*
X+444254Y-3436514D01*
X+447946Y-3447009D01*
X+453974Y-3457504D01*
X+463196Y-3467884D01*
X+473691Y-3475572D01*
X+484186Y-3480490D01*
X+494681Y-3483296D01*
X+505176Y-3484269D01*
X+505772Y-3484272D01*
X+569272Y-3420772D02*
X+569055Y-3426019D01*
X+567290Y-3436514D01*
X+563598Y-3447009D01*
X+557570Y-3457504D01*
X+548348Y-3467884D01*
X+537853Y-3475572D01*
X+527358Y-3480490D01*
X+516863Y-3483296D01*
X+506368Y-3484269D01*
X+505772Y-3484272D01*
X+505772Y-3357272D02*
X+505772Y-3484272D01*
X+442272Y-3420772D02*
X+569272Y-3420772D01*
X+823272Y-3420772D02*
X+823055Y-3415525D01*
X+821290Y-3405030D01*
X+817598Y-3394535D01*
X+811570Y-3384040D01*
X+802348Y-3373660D01*
X+791853Y-3365972D01*
X+781358Y-3361054D01*
X+770863Y-3358248D01*
X+760368Y-3357275D01*
X+759772Y-3357272D01*
X+696272Y-3420772D02*
X+696489Y-3415525D01*
X+698254Y-3405030D01*
X+701946Y-3394535D01*
X+707974Y-3384040D01*
X+717196Y-3373660D01*
X+727691Y-3365972D01*
X+738186Y-3361054D01*
X+748681Y-3358248D01*
X+759176Y-3357275D01*
X+759772Y-3357272D01*
X+696272Y-3420772D02*
X+696489Y-3426019D01*
X+698254Y-3436514D01*
X+701946Y-3447009D01*
X+707974Y-3457504D01*
X+717196Y-3467884D01*
X+727691Y-3475572D01*
X+738186Y-3480490D01*
X+748681Y-3483296D01*
X+759176Y-3484269D01*
X+759772Y-3484272D01*
X+823272Y-3420772D02*
X+823055Y-3426019D01*
X+821290Y-3436514D01*
X+817598Y-3447009D01*
X+811570Y-3457504D01*
X+802348Y-3467884D01*
X+791853Y-3475572D01*
X+781358Y-3480490D01*
X+770863Y-3483296D01*
X+760368Y-3484269D01*
X+759772Y-3484272D01*
X+759772Y-3357272D02*
X+759772Y-3484272D01*
X+696272Y-3420772D02*
X+823272Y-3420772D01*
X+1819272Y-1920772D02*
X+1819055Y-1915525D01*
X+1817290Y-1905030D01*
X+1813598Y-1894535D01*
X+1807570Y-1884040D01*
X+1798348Y-1873660D01*
X+1787853Y-1865972D01*
X+1777358Y-1861054D01*
X+1766863Y-1858248D01*
X+1756368Y-1857275D01*
X+1755772Y-1857272D01*
X+1692272Y-1920772D02*
X+1692489Y-1915525D01*
X+1694254Y-1905030D01*
X+1697946Y-1894535D01*
X+1703974Y-1884040D01*
X+1713196Y-1873660D01*
X+1723691Y-1865972D01*
X+1734186Y-1861054D01*
X+1744681Y-1858248D01*
X+1755176Y-1857275D01*
X+1755772Y-1857272D01*
X+1692272Y-1920772D02*
X+1692489Y-1926019D01*
X+1694254Y-1936514D01*
X+1697946Y-1947009D01*
X+1703974Y-1957504D01*
X+1713196Y-1967884D01*
X+1723691Y-1975572D01*
X+1734186Y-1980490D01*
X+1744681Y-1983296D01*
X+1755176Y-1984269D01*
X+1755772Y-1984272D01*
X+1819272Y-1920772D02*
X+1819055Y-1926019D01*
X+1817290Y-1936514D01*
X+1813598Y-1947009D01*
X+1807570Y-1957504D01*
X+1798348Y-1967884D01*
X+1787853Y-1975572D01*
X+1777358Y-1980490D01*
X+1766863Y-1983296D01*
X+1756368Y-1984269D01*
X+1755772Y-1984272D01*
X+1755772Y-1857272D02*
X+1755772Y-1984272D01*
X+1692272Y-1920772D02*
X+1819272Y-1920772D01*
X+1819272Y-2174772D02*
X+1819055Y-2169525D01*
X+1817290Y-2159030D01*
X+1813598Y-2148535D01*
X+1807570Y-2138040D01*
X+1798348Y-2127660D01*
X+1787853Y-2119972D01*
X+1777358Y-2115054D01*
X+1766863Y-2112248D01*
X+1756368Y-2111275D01*
X+1755772Y-2111272D01*
X+1692272Y-2174772D02*
X+1692489Y-2169525D01*
X+1694254Y-2159030D01*
X+1697946Y-2148535D01*
X+1703974Y-2138040D01*
X+1713196Y-2127660D01*
X+1723691Y-2119972D01*
X+1734186Y-2115054D01*
X+1744681Y-2112248D01*
X+1755176Y-2111275D01*
X+1755772Y-2111272D01*
X+1692272Y-2174772D02*
X+1692489Y-2180019D01*
X+1694254Y-2190514D01*
X+1697946Y-2201009D01*
X+1703974Y-2211504D01*
X+1713196Y-2221884D01*
X+1723691Y-2229572D01*
X+1734186Y-2234490D01*
X+1744681Y-2237296D01*
X+1755176Y-2238269D01*
X+1755772Y-2238272D01*
X+1819272Y-2174772D02*
X+1819055Y-2180019D01*
X+1817290Y-2190514D01*
X+1813598Y-2201009D01*
X+1807570Y-2211504D01*
X+1798348Y-2221884D01*
X+1787853Y-2229572D01*
X+1777358Y-2234490D01*
X+1766863Y-2237296D01*
X+1756368Y-2238269D01*
X+1755772Y-2238272D01*
X+1755772Y-2111272D02*
X+1755772Y-2238272D01*
X+1692272Y-2174772D02*
X+1819272Y-2174772D01*
X+0Y-4600000D02*
X+3700000Y-4600000D01*
X+3700000Y+0D01*
X+0Y+0D01*
X+0Y-4600000D01*
D26*
X-10160Y-6350060D02*
X+2633980Y-6350060D01*
X+2633980Y-4864160D01*
X-10160Y-4864160D01*
X-10160Y-6350060D01*
D27*
X+457202Y-4864160D02*
X+457202Y-6350060D01*
X+1270002Y-4864160D02*
X+1270002Y-6350060D01*
X+2103122Y-4864160D02*
X+2103122Y-6350060D01*
X-10160Y-5137210D02*
X+2633980Y-5137210D01*
X-10160Y-5378510D02*
X+2633980Y-5378510D01*
X-10160Y-5619810D02*
X+2633980Y-5619810D01*
X-10160Y-5861110D02*
X+2633980Y-5861110D01*
X-10160Y-6102410D02*
X+2633980Y-6102410D01*
D26*
X+46990Y-5027990D02*
X+62230Y-5043230D01*
X+123190Y-5043230D01*
X+138430Y-5027990D01*
X+138430Y-5012750D01*
X+123190Y-4997510D01*
X+62230Y-4997510D01*
X+46990Y-4982270D01*
X+46990Y-4967030D01*
X+62230Y-4951790D01*
X+123190Y-4951790D01*
X+138430Y-4967030D01*
X+260350Y-4951790D02*
X+168910Y-5043230D01*
X+168910Y-4951790D02*
X+214630Y-4997510D01*
X+290830Y-5043230D02*
X+290830Y-4951790D01*
X+336550Y-4997510D01*
X+382270Y-4951790D01*
X+382270Y-5043230D01*
X+514350Y-5027990D02*
X+529590Y-5043230D01*
X+590550Y-5043230D01*
X+605790Y-5027990D01*
X+605790Y-5012750D01*
X+590550Y-4997510D01*
X+529590Y-4997510D01*
X+514350Y-4982270D01*
X+514350Y-4967030D01*
X+529590Y-4951790D01*
X+590550Y-4951790D01*
X+605790Y-4967030D01*
X+651510Y-4951790D02*
X+712470Y-4951790D01*
X+681990Y-4951790D02*
X+681990Y-5043230D01*
X+651510Y-5043230D02*
X+712470Y-5043230D01*
X+758190Y-4951790D02*
X+849630Y-4951790D01*
X+758190Y-5043230D01*
X+849630Y-5043230D01*
X+971550Y-5043230D02*
X+880110Y-5043230D01*
X+880110Y-4951790D01*
X+971550Y-4951790D01*
X+880110Y-4997510D02*
X+941070Y-4997510D01*
X+1327150Y-5043230D02*
X+1327150Y-4951790D01*
X+1403350Y-4951790D01*
X+1418590Y-4967030D01*
X+1418590Y-4982270D01*
X+1403350Y-4997510D01*
X+1327150Y-4997510D01*
X+1449070Y-4951790D02*
X+1449070Y-5043230D01*
X+1540510Y-5043230D01*
X+1570990Y-5043230D02*
X+1570990Y-4982270D01*
X+1601470Y-4951790D01*
X+1631950Y-4951790D01*
X+1662430Y-4982270D01*
X+1662430Y-5043230D01*
X+1570990Y-5012750D02*
X+1662430Y-5012750D01*
X+1692910Y-4951790D02*
X+1784350Y-4951790D01*
X+1738630Y-4951790D02*
X+1738630Y-5043230D01*
X+1906270Y-5043230D02*
X+1814830Y-5043230D01*
X+1814830Y-4951790D01*
X+1906270Y-4951790D01*
X+1814830Y-4997510D02*
X+1875790Y-4997510D01*
X+1936750Y-5043230D02*
X+1936750Y-4951790D01*
X+1997710Y-4951790D01*
X+2028190Y-4982270D01*
X+2028190Y-5012750D01*
X+1997710Y-5043230D01*
X+1936750Y-5043230D01*
X+2160270Y-4982270D02*
X+2190750Y-4951790D01*
X+2221230Y-4951790D01*
X+2251710Y-4982270D01*
X+2251710Y-5012750D01*
X+2221230Y-5043230D01*
X+2190750Y-5043230D01*
X+2160270Y-5012750D01*
X+2160270Y-4982270D01*
X+2221230Y-5012750D02*
X+2251710Y-5043230D01*
X+2282190Y-4951790D02*
X+2373630Y-4951790D01*
X+2327910Y-4951790D02*
X+2327910Y-5043230D01*
X+2495550Y-4951790D02*
X+2404110Y-5043230D01*
X+2404110Y-4951790D02*
X+2449830Y-4997510D01*
D23*
X+236220Y-5188010D02*
X+236220Y-5315010D01*
X+172720Y-5251510D02*
X+299720Y-5251510D01*
D26*
X+533400Y-5276910D02*
X+533400Y-5226110D01*
X+546100Y-5213410D01*
X+596900Y-5213410D01*
X+609600Y-5226110D01*
X+609600Y-5276910D01*
X+596900Y-5289610D01*
X+546100Y-5289610D01*
X+533400Y-5276910D01*
X+533400Y-5289610D02*
X+609600Y-5213410D01*
X+673100Y-5276910D02*
X+685800Y-5276910D01*
X+685800Y-5289610D01*
X+673100Y-5289610D01*
X+673100Y-5276910D01*
X+749300Y-5226110D02*
X+762000Y-5213410D01*
X+800100Y-5213410D01*
X+812800Y-5226110D01*
X+812800Y-5238810D01*
X+800100Y-5251510D01*
X+812800Y-5264210D01*
X+812800Y-5276910D01*
X+800100Y-5289610D01*
X+762000Y-5289610D01*
X+749300Y-5276910D01*
X+774700Y-5251510D02*
X+800100Y-5251510D01*
X+863600Y-5251510D02*
X+850900Y-5238810D01*
X+850900Y-5226110D01*
X+863600Y-5213410D01*
X+901700Y-5213410D01*
X+914400Y-5226110D01*
X+914400Y-5238810D01*
X+901700Y-5251510D01*
X+863600Y-5251510D01*
X+850900Y-5264210D01*
X+850900Y-5276910D01*
X+863600Y-5289610D01*
X+901700Y-5289610D01*
X+914400Y-5276910D01*
X+914400Y-5264210D01*
X+901700Y-5251510D01*
X+965200Y-5238810D02*
X+990600Y-5213410D01*
X+990600Y-5289610D01*
X+1041400Y-5289610D02*
X+1041400Y-5238810D01*
X+1041400Y-5251510D02*
X+1054100Y-5238810D01*
X+1079500Y-5264210D01*
X+1104900Y-5238810D01*
X+1117600Y-5251510D01*
X+1117600Y-5289610D01*
X+1143000Y-5289610D02*
X+1143000Y-5238810D01*
X+1143000Y-5251510D02*
X+1155700Y-5238810D01*
X+1181100Y-5264210D01*
X+1206500Y-5238810D01*
X+1219200Y-5251510D01*
X+1219200Y-5289610D01*
X+1435100Y-5213410D02*
X+1358900Y-5289610D01*
X+1358900Y-5213410D02*
X+1397000Y-5251510D01*
X+1536700Y-5289610D02*
X+1460500Y-5289610D01*
X+1460500Y-5213410D01*
X+1536700Y-5213410D01*
X+1460500Y-5251510D02*
X+1511300Y-5251510D01*
X+1562100Y-5276910D02*
X+1574800Y-5289610D01*
X+1625600Y-5289610D01*
X+1638300Y-5276910D01*
X+1638300Y-5264210D01*
X+1625600Y-5251510D01*
X+1574800Y-5251510D01*
X+1562100Y-5238810D01*
X+1562100Y-5226110D01*
X+1574800Y-5213410D01*
X+1625600Y-5213410D01*
X+1638300Y-5226110D01*
X+2217420Y-5226110D02*
X+2230120Y-5213410D01*
X+2268220Y-5213410D01*
X+2280920Y-5226110D01*
X+2280920Y-5238810D01*
X+2268220Y-5251510D01*
X+2280920Y-5264210D01*
X+2280920Y-5276910D01*
X+2268220Y-5289610D01*
X+2230120Y-5289610D01*
X+2217420Y-5276910D01*
X+2242820Y-5251510D02*
X+2268220Y-5251510D01*
X+2319020Y-5226110D02*
X+2331720Y-5213410D01*
X+2369820Y-5213410D01*
X+2382520Y-5226110D01*
X+2382520Y-5238810D01*
X+2369820Y-5251510D01*
X+2382520Y-5264210D01*
X+2382520Y-5276910D01*
X+2369820Y-5289610D01*
X+2331720Y-5289610D01*
X+2319020Y-5276910D01*
X+2344420Y-5251510D02*
X+2369820Y-5251510D01*
D23*
X+191319Y-5447909D02*
X+281121Y-5537711D01*
X+191319Y-5537711D02*
X+281121Y-5447909D01*
D26*
X+533400Y-5518210D02*
X+533400Y-5467410D01*
X+546100Y-5454710D01*
X+596900Y-5454710D01*
X+609600Y-5467410D01*
X+609600Y-5518210D01*
X+596900Y-5530910D01*
X+546100Y-5530910D01*
X+533400Y-5518210D01*
X+533400Y-5530910D02*
X+609600Y-5454710D01*
X+673100Y-5518210D02*
X+685800Y-5518210D01*
X+685800Y-5530910D01*
X+673100Y-5530910D01*
X+673100Y-5518210D01*
X+749300Y-5454710D02*
X+812800Y-5454710D01*
X+812800Y-5467410D01*
X+749300Y-5530910D01*
X+914400Y-5467410D02*
X+901700Y-5454710D01*
X+863600Y-5454710D01*
X+850900Y-5467410D01*
X+850900Y-5518210D01*
X+863600Y-5530910D01*
X+901700Y-5530910D01*
X+914400Y-5518210D01*
X+914400Y-5505510D01*
X+901700Y-5492810D01*
X+850900Y-5492810D01*
X+952500Y-5467410D02*
X+965200Y-5454710D01*
X+1003300Y-5454710D01*
X+1016000Y-5467410D01*
X+1016000Y-5480110D01*
X+1003300Y-5492810D01*
X+965200Y-5492810D01*
X+952500Y-5505510D01*
X+952500Y-5530910D01*
X+1016000Y-5530910D01*
X+1041400Y-5530910D02*
X+1041400Y-5480110D01*
X+1041400Y-5492810D02*
X+1054100Y-5480110D01*
X+1079500Y-5505510D01*
X+1104900Y-5480110D01*
X+1117600Y-5492810D01*
X+1117600Y-5530910D01*
X+1143000Y-5530910D02*
X+1143000Y-5480110D01*
X+1143000Y-5492810D02*
X+1155700Y-5480110D01*
X+1181100Y-5505510D01*
X+1206500Y-5480110D01*
X+1219200Y-5492810D01*
X+1219200Y-5530910D01*
X+1435100Y-5454710D02*
X+1358900Y-5530910D01*
X+1358900Y-5454710D02*
X+1397000Y-5492810D01*
X+1536700Y-5530910D02*
X+1460500Y-5530910D01*
X+1460500Y-5454710D01*
X+1536700Y-5454710D01*
X+1460500Y-5492810D02*
X+1511300Y-5492810D01*
X+1562100Y-5518210D02*
X+1574800Y-5530910D01*
X+1625600Y-5530910D01*
X+1638300Y-5518210D01*
X+1638300Y-5505510D01*
X+1625600Y-5492810D01*
X+1574800Y-5492810D01*
X+1562100Y-5480110D01*
X+1562100Y-5467410D01*
X+1574800Y-5454710D01*
X+1625600Y-5454710D01*
X+1638300Y-5467410D01*
X+2217420Y-5467410D02*
X+2230120Y-5454710D01*
X+2268220Y-5454710D01*
X+2280920Y-5467410D01*
X+2280920Y-5480110D01*
X+2268220Y-5492810D01*
X+2230120Y-5492810D01*
X+2217420Y-5505510D01*
X+2217420Y-5530910D01*
X+2280920Y-5530910D01*
D23*
X+236220Y-5670610D02*
X+236220Y-5797610D01*
X+172720Y-5734110D02*
X+299720Y-5734110D01*
X+191319Y-5689209D02*
X+281121Y-5779011D01*
X+191319Y-5779011D02*
X+281121Y-5689209D01*
D26*
X+533400Y-5759510D02*
X+533400Y-5708710D01*
X+546100Y-5696010D01*
X+596900Y-5696010D01*
X+609600Y-5708710D01*
X+609600Y-5759510D01*
X+596900Y-5772210D01*
X+546100Y-5772210D01*
X+533400Y-5759510D01*
X+533400Y-5772210D02*
X+609600Y-5696010D01*
X+673100Y-5759510D02*
X+685800Y-5759510D01*
X+685800Y-5772210D01*
X+673100Y-5772210D01*
X+673100Y-5759510D01*
X+762000Y-5734110D02*
X+749300Y-5721410D01*
X+749300Y-5708710D01*
X+762000Y-5696010D01*
X+800100Y-5696010D01*
X+812800Y-5708710D01*
X+812800Y-5721410D01*
X+800100Y-5734110D01*
X+762000Y-5734110D01*
X+749300Y-5746810D01*
X+749300Y-5759510D01*
X+762000Y-5772210D01*
X+800100Y-5772210D01*
X+812800Y-5759510D01*
X+812800Y-5746810D01*
X+800100Y-5734110D01*
X+863600Y-5734110D02*
X+850900Y-5721410D01*
X+850900Y-5708710D01*
X+863600Y-5696010D01*
X+901700Y-5696010D01*
X+914400Y-5708710D01*
X+914400Y-5721410D01*
X+901700Y-5734110D01*
X+863600Y-5734110D01*
X+850900Y-5746810D01*
X+850900Y-5759510D01*
X+863600Y-5772210D01*
X+901700Y-5772210D01*
X+914400Y-5759510D01*
X+914400Y-5746810D01*
X+901700Y-5734110D01*
X+1016000Y-5721410D02*
X+1003300Y-5734110D01*
X+965200Y-5734110D01*
X+952500Y-5721410D01*
X+952500Y-5708710D01*
X+965200Y-5696010D01*
X+1003300Y-5696010D01*
X+1016000Y-5708710D01*
X+1016000Y-5759510D01*
X+1003300Y-5772210D01*
X+965200Y-5772210D01*
X+1041400Y-5772210D02*
X+1041400Y-5721410D01*
X+1041400Y-5734110D02*
X+1054100Y-5721410D01*
X+1079500Y-5746810D01*
X+1104900Y-5721410D01*
X+1117600Y-5734110D01*
X+1117600Y-5772210D01*
X+1143000Y-5772210D02*
X+1143000Y-5721410D01*
X+1143000Y-5734110D02*
X+1155700Y-5721410D01*
X+1181100Y-5746810D01*
X+1206500Y-5721410D01*
X+1219200Y-5734110D01*
X+1219200Y-5772210D01*
X+1435100Y-5696010D02*
X+1358900Y-5772210D01*
X+1358900Y-5696010D02*
X+1397000Y-5734110D01*
X+1536700Y-5772210D02*
X+1460500Y-5772210D01*
X+1460500Y-5696010D01*
X+1536700Y-5696010D01*
X+1460500Y-5734110D02*
X+1511300Y-5734110D01*
X+1562100Y-5759510D02*
X+1574800Y-5772210D01*
X+1625600Y-5772210D01*
X+1638300Y-5759510D01*
X+1638300Y-5746810D01*
X+1625600Y-5734110D01*
X+1574800Y-5734110D01*
X+1562100Y-5721410D01*
X+1562100Y-5708710D01*
X+1574800Y-5696010D01*
X+1625600Y-5696010D01*
X+1638300Y-5708710D01*
X+2217420Y-5708710D02*
X+2230120Y-5696010D01*
X+2268220Y-5696010D01*
X+2280920Y-5708710D01*
X+2280920Y-5721410D01*
X+2268220Y-5734110D01*
X+2230120Y-5734110D01*
X+2217420Y-5746810D01*
X+2217420Y-5772210D01*
X+2280920Y-5772210D01*
X+2331720Y-5734110D02*
X+2319020Y-5721410D01*
X+2319020Y-5708710D01*
X+2331720Y-5696010D01*
X+2369820Y-5696010D01*
X+2382520Y-5708710D01*
X+2382520Y-5721410D01*
X+2369820Y-5734110D01*
X+2331720Y-5734110D01*
X+2319020Y-5746810D01*
X+2319020Y-5759510D01*
X+2331720Y-5772210D01*
X+2369820Y-5772210D01*
X+2382520Y-5759510D01*
X+2382520Y-5746810D01*
X+2369820Y-5734110D01*
D23*
X+299720Y-5975410D02*
X+299503Y-5970163D01*
X+297738Y-5959668D01*
X+294046Y-5949173D01*
X+288018Y-5938678D01*
X+278796Y-5928298D01*
X+268301Y-5920610D01*
X+257806Y-5915692D01*
X+247311Y-5912886D01*
X+236816Y-5911913D01*
X+236220Y-5911910D01*
X+172720Y-5975410D02*
X+172937Y-5970163D01*
X+174702Y-5959668D01*
X+178394Y-5949173D01*
X+184422Y-5938678D01*
X+193644Y-5928298D01*
X+204139Y-5920610D01*
X+214634Y-5915692D01*
X+225129Y-5912886D01*
X+235624Y-5911913D01*
X+236220Y-5911910D01*
X+172720Y-5975410D02*
X+172937Y-5980657D01*
X+174702Y-5991152D01*
X+178394Y-6001647D01*
X+184422Y-6012142D01*
X+193644Y-6022522D01*
X+204139Y-6030210D01*
X+214634Y-6035128D01*
X+225129Y-6037934D01*
X+235624Y-6038907D01*
X+236220Y-6038910D01*
X+299720Y-5975410D02*
X+299503Y-5980657D01*
X+297738Y-5991152D01*
X+294046Y-6001647D01*
X+288018Y-6012142D01*
X+278796Y-6022522D01*
X+268301Y-6030210D01*
X+257806Y-6035128D01*
X+247311Y-6037934D01*
X+236816Y-6038907D01*
X+236220Y-6038910D01*
X+236220Y-5911910D02*
X+236220Y-6038910D01*
X+172720Y-5975410D02*
X+299720Y-5975410D01*
D26*
X+558800Y-5962710D02*
X+584200Y-5937310D01*
X+584200Y-6013510D01*
X+673100Y-6000810D02*
X+685800Y-6000810D01*
X+685800Y-6013510D01*
X+673100Y-6013510D01*
X+673100Y-6000810D01*
X+736600Y-6000810D02*
X+736600Y-5950010D01*
X+749300Y-5937310D01*
X+800100Y-5937310D01*
X+812800Y-5950010D01*
X+812800Y-6000810D01*
X+800100Y-6013510D01*
X+749300Y-6013510D01*
X+736600Y-6000810D01*
X+736600Y-6013510D02*
X+812800Y-5937310D01*
X+863600Y-5962710D02*
X+889000Y-5937310D01*
X+889000Y-6013510D01*
X+1016000Y-5950010D02*
X+1003300Y-5937310D01*
X+965200Y-5937310D01*
X+952500Y-5950010D01*
X+952500Y-6000810D01*
X+965200Y-6013510D01*
X+1003300Y-6013510D01*
X+1016000Y-6000810D01*
X+1016000Y-5988110D01*
X+1003300Y-5975410D01*
X+952500Y-5975410D01*
X+1041400Y-6013510D02*
X+1041400Y-5962710D01*
X+1041400Y-5975410D02*
X+1054100Y-5962710D01*
X+1079500Y-5988110D01*
X+1104900Y-5962710D01*
X+1117600Y-5975410D01*
X+1117600Y-6013510D01*
X+1143000Y-6013510D02*
X+1143000Y-5962710D01*
X+1143000Y-5975410D02*
X+1155700Y-5962710D01*
X+1181100Y-5988110D01*
X+1206500Y-5962710D01*
X+1219200Y-5975410D01*
X+1219200Y-6013510D01*
X+1435100Y-5937310D02*
X+1358900Y-6013510D01*
X+1358900Y-5937310D02*
X+1397000Y-5975410D01*
X+1536700Y-6013510D02*
X+1460500Y-6013510D01*
X+1460500Y-5937310D01*
X+1536700Y-5937310D01*
X+1460500Y-5975410D02*
X+1511300Y-5975410D01*
X+1562100Y-6000810D02*
X+1574800Y-6013510D01*
X+1625600Y-6013510D01*
X+1638300Y-6000810D01*
X+1638300Y-5988110D01*
X+1625600Y-5975410D01*
X+1574800Y-5975410D01*
X+1562100Y-5962710D01*
X+1562100Y-5950010D01*
X+1574800Y-5937310D01*
X+1625600Y-5937310D01*
X+1638300Y-5950010D01*
X+2217420Y-5950010D02*
X+2230120Y-5937310D01*
X+2268220Y-5937310D01*
X+2280920Y-5950010D01*
X+2280920Y-5962710D01*
X+2268220Y-5975410D01*
X+2280920Y-5988110D01*
X+2280920Y-6000810D01*
X+2268220Y-6013510D01*
X+2230120Y-6013510D01*
X+2217420Y-6000810D01*
X+2242820Y-5975410D02*
X+2268220Y-5975410D01*
X+2319020Y-5950010D02*
X+2331720Y-5937310D01*
X+2369820Y-5937310D01*
X+2382520Y-5950010D01*
X+2382520Y-5962710D01*
X+2369820Y-5975410D01*
X+2331720Y-5975410D01*
X+2319020Y-5988110D01*
X+2319020Y-6013510D01*
X+2382520Y-6013510D01*
D23*
X+299720Y-6216710D02*
X+299503Y-6211463D01*
X+297738Y-6200968D01*
X+294046Y-6190473D01*
X+288018Y-6179978D01*
X+278796Y-6169598D01*
X+268301Y-6161910D01*
X+257806Y-6156992D01*
X+247311Y-6154186D01*
X+236816Y-6153213D01*
X+236220Y-6153210D01*
X+172720Y-6216710D02*
X+172937Y-6211463D01*
X+174702Y-6200968D01*
X+178394Y-6190473D01*
X+184422Y-6179978D01*
X+193644Y-6169598D01*
X+204139Y-6161910D01*
X+214634Y-6156992D01*
X+225129Y-6154186D01*
X+235624Y-6153213D01*
X+236220Y-6153210D01*
X+172720Y-6216710D02*
X+172937Y-6221957D01*
X+174702Y-6232452D01*
X+178394Y-6242947D01*
X+184422Y-6253442D01*
X+193644Y-6263822D01*
X+204139Y-6271510D01*
X+214634Y-6276428D01*
X+225129Y-6279234D01*
X+235624Y-6280207D01*
X+236220Y-6280210D01*
X+299720Y-6216710D02*
X+299503Y-6221957D01*
X+297738Y-6232452D01*
X+294046Y-6242947D01*
X+288018Y-6253442D01*
X+278796Y-6263822D01*
X+268301Y-6271510D01*
X+257806Y-6276428D01*
X+247311Y-6279234D01*
X+236816Y-6280207D01*
X+236220Y-6280210D01*
X+191319Y-6171809D02*
X+281121Y-6261611D01*
X+191319Y-6261611D02*
X+281121Y-6171809D01*
D26*
X+558800Y-6204010D02*
X+584200Y-6178610D01*
X+584200Y-6254810D01*
X+673100Y-6242110D02*
X+685800Y-6242110D01*
X+685800Y-6254810D01*
X+673100Y-6254810D01*
X+673100Y-6242110D01*
X+749300Y-6191310D02*
X+762000Y-6178610D01*
X+800100Y-6178610D01*
X+812800Y-6191310D01*
X+812800Y-6204010D01*
X+800100Y-6216710D01*
X+762000Y-6216710D01*
X+749300Y-6229410D01*
X+749300Y-6254810D01*
X+812800Y-6254810D01*
X+850900Y-6178610D02*
X+914400Y-6178610D01*
X+914400Y-6191310D01*
X+850900Y-6254810D01*
X+939800Y-6254810D02*
X+939800Y-6204010D01*
X+939800Y-6216710D02*
X+952500Y-6204010D01*
X+977900Y-6229410D01*
X+1003300Y-6204010D01*
X+1016000Y-6216710D01*
X+1016000Y-6254810D01*
X+1041400Y-6254810D02*
X+1041400Y-6204010D01*
X+1041400Y-6216710D02*
X+1054100Y-6204010D01*
X+1079500Y-6229410D01*
X+1104900Y-6204010D01*
X+1117600Y-6216710D01*
X+1117600Y-6254810D01*
X+1435100Y-6178610D02*
X+1358900Y-6254810D01*
X+1358900Y-6178610D02*
X+1397000Y-6216710D01*
X+1536700Y-6254810D02*
X+1460500Y-6254810D01*
X+1460500Y-6178610D01*
X+1536700Y-6178610D01*
X+1460500Y-6216710D02*
X+1511300Y-6216710D01*
X+1562100Y-6242110D02*
X+1574800Y-6254810D01*
X+1625600Y-6254810D01*
X+1638300Y-6242110D01*
X+1638300Y-6229410D01*
X+1625600Y-6216710D01*
X+1574800Y-6216710D01*
X+1562100Y-6204010D01*
X+1562100Y-6191310D01*
X+1574800Y-6178610D01*
X+1625600Y-6178610D01*
X+1638300Y-6191310D01*
X+2217420Y-6191310D02*
X+2230120Y-6178610D01*
X+2268220Y-6178610D01*
X+2280920Y-6191310D01*
X+2280920Y-6204010D01*
X+2268220Y-6216710D01*
X+2230120Y-6216710D01*
X+2217420Y-6229410D01*
X+2217420Y-6254810D01*
X+2280920Y-6254810D01*
M02*
