G04 PROTEUS RS274X GERBER FILE*
%FSLAX45Y45*%
%MOMM*%
G01*
%AMPPAD020*
4,1,36,
-0.762000,0.889000,
0.762000,0.889000,
0.787970,0.886470,
0.811980,0.879200,
0.833580,0.867650,
0.852290,0.852290,
0.867650,0.833570,
0.879200,0.811980,
0.886470,0.787970,
0.889000,0.762000,
0.889000,-0.762000,
0.886470,-0.787970,
0.879200,-0.811980,
0.867650,-0.833570,
0.852290,-0.852290,
0.833580,-0.867650,
0.811980,-0.879200,
0.787970,-0.886470,
0.762000,-0.889000,
-0.762000,-0.889000,
-0.787970,-0.886470,
-0.811980,-0.879200,
-0.833580,-0.867650,
-0.852290,-0.852290,
-0.867650,-0.833570,
-0.879200,-0.811980,
-0.886470,-0.787970,
-0.889000,-0.762000,
-0.889000,0.762000,
-0.886470,0.787970,
-0.879200,0.811980,
-0.867650,0.833570,
-0.852290,0.852290,
-0.833580,0.867650,
-0.811980,0.879200,
-0.787970,0.886470,
-0.762000,0.889000,
0*%
%ADD28PPAD020*%
%ADD29C,1.778000*%
%ADD31C,2.286000*%
%AMPPAD028*
4,1,36,
-1.016000,1.143000,
1.016000,1.143000,
1.041970,1.140470,
1.065980,1.133200,
1.087580,1.121650,
1.106290,1.106290,
1.121650,1.087570,
1.133200,1.065980,
1.140470,1.041970,
1.143000,1.016000,
1.143000,-1.016000,
1.140470,-1.041970,
1.133200,-1.065980,
1.121650,-1.087570,
1.106290,-1.106290,
1.087580,-1.121650,
1.065980,-1.133200,
1.041970,-1.140470,
1.016000,-1.143000,
-1.016000,-1.143000,
-1.041970,-1.140470,
-1.065980,-1.133200,
-1.087580,-1.121650,
-1.106290,-1.106290,
-1.121650,-1.087570,
-1.133200,-1.065980,
-1.140470,-1.041970,
-1.143000,-1.016000,
-1.143000,1.016000,
-1.140470,1.041970,
-1.133200,1.065980,
-1.121650,1.087570,
-1.106290,1.106290,
-1.087580,1.121650,
-1.065980,1.133200,
-1.041970,1.140470,
-1.016000,1.143000,
0*%
%ADD34PPAD028*%
%AMPPAD030*
4,1,4,
-1.016000,1.016000,
1.016000,1.016000,
1.016000,-1.016000,
-1.016000,-1.016000,
-1.016000,1.016000,
0*%
%ADD36PPAD030*%
%AMPPAD032*
4,1,36,
1.143000,1.016000,
1.143000,-1.016000,
1.140470,-1.041970,
1.133200,-1.065980,
1.121650,-1.087580,
1.106290,-1.106290,
1.087570,-1.121650,
1.065980,-1.133200,
1.041970,-1.140470,
1.016000,-1.143000,
-1.016000,-1.143000,
-1.041970,-1.140470,
-1.065980,-1.133200,
-1.087570,-1.121650,
-1.106290,-1.106290,
-1.121650,-1.087580,
-1.133200,-1.065980,
-1.140470,-1.041970,
-1.143000,-1.016000,
-1.143000,1.016000,
-1.140470,1.041970,
-1.133200,1.065980,
-1.121650,1.087580,
-1.106290,1.106290,
-1.087570,1.121650,
-1.065980,1.133200,
-1.041970,1.140470,
-1.016000,1.143000,
1.016000,1.143000,
1.041970,1.140470,
1.065980,1.133200,
1.087570,1.121650,
1.106290,1.106290,
1.121650,1.087580,
1.133200,1.065980,
1.140470,1.041970,
1.143000,1.016000,
0*%
%ADD38PPAD032*%
%ADD23C,0.203200*%
D28*
X+555772Y-4320772D03*
D29*
X+555772Y-270772D03*
X+755772Y-4320772D03*
X+755772Y-270772D03*
X+955772Y-4320772D03*
X+955772Y-270772D03*
X+1155772Y-4320772D03*
X+1155772Y-270772D03*
X+1355772Y-4320772D03*
X+1355772Y-270772D03*
X+1555772Y-4320772D03*
X+1555772Y-270772D03*
X+1755772Y-4320772D03*
X+1755772Y-270772D03*
X+1955772Y-4320772D03*
X+1955772Y-270772D03*
X+2155772Y-4320772D03*
X+2155772Y-270772D03*
X+2355772Y-4320772D03*
X+2355772Y-270772D03*
X+2555772Y-4320772D03*
X+2555772Y-270772D03*
X+2755772Y-4320772D03*
X+2755772Y-270772D03*
X+2955772Y-4320772D03*
X+2955772Y-270772D03*
X+3155772Y-4320772D03*
X+3155772Y-270772D03*
D31*
X+747772Y-1370772D03*
X+1255772Y-1370772D03*
D34*
X+2805772Y-1270772D03*
X+2655772Y-3420772D03*
D36*
X+205772Y-520772D03*
D31*
X+459772Y-520772D03*
X+713772Y-520772D03*
X+967772Y-520772D03*
X+1221772Y-520772D03*
X+1475772Y-520772D03*
X+1729772Y-520772D03*
X+1983772Y-520772D03*
X+2237772Y-520772D03*
X+2491772Y-520772D03*
X+2745772Y-520772D03*
X+2999772Y-520772D03*
X+3253772Y-520772D03*
X+3507772Y-520772D03*
D36*
X+205772Y-4070772D03*
D31*
X+459772Y-4070772D03*
X+713772Y-4070772D03*
X+967772Y-4070772D03*
X+1221772Y-4070772D03*
X+1475772Y-4070772D03*
X+1729772Y-4070772D03*
X+1983772Y-4070772D03*
X+2237772Y-4070772D03*
X+2491772Y-4070772D03*
X+2745772Y-4070772D03*
X+2999772Y-4070772D03*
X+3253772Y-4070772D03*
X+3507772Y-4070772D03*
D34*
X+505772Y-3420772D03*
X+759772Y-3420772D03*
D38*
X+1755772Y-1920772D03*
X+1755772Y-2174772D03*
D23*
X+0Y-4600000D02*
X+3700000Y-4600000D01*
X+3700000Y+0D01*
X+0Y+0D01*
X+0Y-4600000D01*
M02*
