G04 PROTEUS RS274X GERBER FILE*
%FSLAX45Y45*%
%MOMM*%
G01*
%ADD24C,0.508000*%
%ADD23C,0.203200*%
D24*
X+593872Y-4511272D02*
X+593741Y-4508114D01*
X+592675Y-4501796D01*
X+590444Y-4495478D01*
X+586799Y-4489160D01*
X+581224Y-4482921D01*
X+574906Y-4478325D01*
X+568588Y-4475392D01*
X+562270Y-4473730D01*
X+555952Y-4473172D01*
X+555772Y-4473172D01*
X+517672Y-4511272D02*
X+517803Y-4508114D01*
X+518869Y-4501796D01*
X+521100Y-4495478D01*
X+524745Y-4489160D01*
X+530320Y-4482921D01*
X+536638Y-4478325D01*
X+542956Y-4475392D01*
X+549274Y-4473730D01*
X+555592Y-4473172D01*
X+555772Y-4473172D01*
X+517672Y-4511272D02*
X+517803Y-4514430D01*
X+518869Y-4520748D01*
X+521100Y-4527066D01*
X+524745Y-4533384D01*
X+530320Y-4539623D01*
X+536638Y-4544219D01*
X+542956Y-4547152D01*
X+549274Y-4548814D01*
X+555592Y-4549372D01*
X+555772Y-4549372D01*
X+593872Y-4511272D02*
X+593741Y-4514430D01*
X+592675Y-4520748D01*
X+590444Y-4527066D01*
X+586799Y-4533384D01*
X+581224Y-4539623D01*
X+574906Y-4544219D01*
X+568588Y-4547152D01*
X+562270Y-4548814D01*
X+555952Y-4549372D01*
X+555772Y-4549372D01*
D23*
X+3404172Y-3770772D02*
X+3454972Y-3739022D01*
X+3454972Y-3707272D01*
X+3404172Y-3675522D01*
X+3353372Y-3675522D01*
X+3302572Y-3707272D01*
X+3302572Y-3739022D01*
X+3353372Y-3770772D01*
X+3404172Y-3770772D01*
X+3454972Y-3643772D02*
X+3378772Y-3643772D01*
X+3302572Y-3596147D01*
X+3378772Y-3548522D01*
X+3454972Y-3548522D01*
X+3302572Y-3516772D02*
X+3454972Y-3516772D01*
X+3378772Y-3469147D01*
X+3454972Y-3421522D01*
X+3302572Y-3421522D01*
X+3327972Y-3389772D02*
X+3302572Y-3373897D01*
X+3302572Y-3310397D01*
X+3327972Y-3294522D01*
X+3353372Y-3294522D01*
X+3378772Y-3310397D01*
X+3378772Y-3373897D01*
X+3404172Y-3389772D01*
X+3429572Y-3389772D01*
X+3454972Y-3373897D01*
X+3454972Y-3310397D01*
X+3429572Y-3294522D01*
X+3404172Y-3056397D02*
X+3404172Y-3119897D01*
X+3378772Y-3135772D01*
X+3353372Y-3119897D01*
X+3353372Y-3056397D01*
X+3327972Y-3040522D01*
X+3302572Y-3056397D01*
X+3302572Y-3135772D01*
X+3404172Y-3008772D02*
X+3327972Y-3008772D01*
X+3302572Y-2992897D01*
X+3353372Y-2961147D01*
X+3302572Y-2929397D01*
X+3327972Y-2913522D01*
X+3404172Y-2913522D01*
X+3378772Y-2786522D02*
X+3404172Y-2802397D01*
X+3404172Y-2865897D01*
X+3378772Y-2881772D01*
X+3327972Y-2881772D01*
X+3302572Y-2865897D01*
X+3302572Y-2802397D01*
X+3327972Y-2786522D01*
X+3404172Y-2738897D02*
X+3404172Y-2675397D01*
X+3378772Y-2659522D01*
X+3302572Y-2659522D01*
X+3302572Y-2738897D01*
X+3327972Y-2754772D01*
X+3353372Y-2738897D01*
X+3353372Y-2659522D01*
X+3302572Y-2627772D02*
X+3404172Y-2627772D01*
X+3378772Y-2627772D02*
X+3404172Y-2611897D01*
X+3404172Y-2548397D01*
X+3378772Y-2532522D01*
X+3302572Y-2532522D01*
X+3404172Y-2357897D02*
X+3404172Y-2294397D01*
X+3378772Y-2278522D01*
X+3302572Y-2278522D01*
X+3302572Y-2357897D01*
X+3327972Y-2373772D01*
X+3353372Y-2357897D01*
X+3353372Y-2278522D01*
X+3378772Y-2151522D02*
X+3404172Y-2167397D01*
X+3404172Y-2230897D01*
X+3378772Y-2246772D01*
X+3327972Y-2246772D01*
X+3302572Y-2230897D01*
X+3302572Y-2167397D01*
X+3327972Y-2151522D01*
X+3302572Y-2151522D02*
X+3454972Y-2151522D01*
X+3404172Y-2103897D02*
X+3404172Y-2040397D01*
X+3378772Y-2024522D01*
X+3302572Y-2024522D01*
X+3302572Y-2103897D01*
X+3327972Y-2119772D01*
X+3353372Y-2103897D01*
X+3353372Y-2024522D01*
X+3277172Y-1992772D02*
X+3404172Y-1992772D01*
X+3378772Y-1992772D02*
X+3404172Y-1976897D01*
X+3404172Y-1913397D01*
X+3378772Y-1897522D01*
X+3353372Y-1897522D01*
X+3327972Y-1913397D01*
X+3327972Y-1976897D01*
X+3353372Y-1992772D01*
X+3454972Y-1849897D02*
X+3327972Y-1849897D01*
X+3302572Y-1834022D01*
X+3302572Y-1786397D01*
X+3327972Y-1770522D01*
X+3404172Y-1865772D02*
X+3404172Y-1786397D01*
X+3353372Y-1738772D02*
X+3353372Y-1643522D01*
X+3378772Y-1643522D01*
X+3404172Y-1659397D01*
X+3404172Y-1722897D01*
X+3378772Y-1738772D01*
X+3327972Y-1738772D01*
X+3302572Y-1722897D01*
X+3302572Y-1659397D01*
X+3302572Y-1611772D02*
X+3404172Y-1611772D01*
X+3378772Y-1611772D02*
X+3404172Y-1595897D01*
X+3404172Y-1532397D01*
X+3378772Y-1516522D01*
X+3404172Y-1357772D02*
X+3302572Y-1310147D01*
X+3404172Y-1262522D01*
X+3404172Y-1199022D02*
X+3454972Y-1167272D01*
X+3302572Y-1167272D01*
X+3327972Y-1056147D02*
X+3327972Y-1040272D01*
X+3302572Y-1040272D01*
X+3302572Y-1056147D01*
X+3327972Y-1056147D01*
X+3327972Y-976772D02*
X+3429572Y-976772D01*
X+3454972Y-960897D01*
X+3454972Y-897397D01*
X+3429572Y-881522D01*
X+3327972Y-881522D01*
X+3302572Y-897397D01*
X+3302572Y-960897D01*
X+3327972Y-976772D01*
X+3302572Y-976772D02*
X+3454972Y-881522D01*
X+3180212Y-3750772D02*
X+3073532Y-3750772D01*
X+3091312Y-3750772D02*
X+3144652Y-3674572D01*
X+3109092Y-3725372D02*
X+3073532Y-3674572D01*
X+3144652Y-3585672D02*
X+3144652Y-3636472D01*
X+3126872Y-3649172D01*
X+3109092Y-3636472D01*
X+3109092Y-3585672D01*
X+3091312Y-3572972D01*
X+3073532Y-3585672D01*
X+3073532Y-3649172D01*
X+3180212Y-3534872D02*
X+3091312Y-3534872D01*
X+3073532Y-3522172D01*
X+3073532Y-3484072D01*
X+3091312Y-3471372D01*
X+3144652Y-3547572D02*
X+3144652Y-3484072D01*
X+3126872Y-3445972D02*
X+3144652Y-3433272D01*
X+3144652Y-3382472D01*
X+3126872Y-3369772D01*
X+3091312Y-3369772D01*
X+3073532Y-3382472D01*
X+3073532Y-3433272D01*
X+3091312Y-3445972D01*
X+3126872Y-3445972D01*
X+3126872Y-3268172D02*
X+3144652Y-3280872D01*
X+3144652Y-3331672D01*
X+3126872Y-3344372D01*
X+3091312Y-3344372D01*
X+3073532Y-3331672D01*
X+3073532Y-3280872D01*
X+3091312Y-3268172D01*
X+3073532Y-3268172D02*
X+3180212Y-3268172D01*
X+3109092Y-3242772D02*
X+3109092Y-3166572D01*
X+3126872Y-3166572D01*
X+3144652Y-3179272D01*
X+3144652Y-3230072D01*
X+3126872Y-3242772D01*
X+3091312Y-3242772D01*
X+3073532Y-3230072D01*
X+3073532Y-3179272D01*
X+3144652Y-3141172D02*
X+3073532Y-3103072D01*
X+3144652Y-3064972D01*
X+3073532Y-2976072D02*
X+3073532Y-3026872D01*
X+3091312Y-3039572D01*
X+3162432Y-3039572D01*
X+3180212Y-3026872D01*
X+3180212Y-2976072D01*
X+3162432Y-2963372D01*
X+3109092Y-2963372D01*
X+3109092Y-3001472D01*
X+3144652Y-3001472D01*
X+3144652Y-2976072D01*
X+3126872Y-2861772D02*
X+3144652Y-2874472D01*
X+3144652Y-2925272D01*
X+3126872Y-2937972D01*
X+3109092Y-2937972D01*
X+3091312Y-2925272D01*
X+3091312Y-2874472D01*
X+3109092Y-2861772D01*
X+3144652Y-2861772D02*
X+3073532Y-2861772D01*
X+3055752Y-2874472D01*
X+3055752Y-2937972D01*
X+3073532Y-2836372D02*
X+3144652Y-2836372D01*
X+3126872Y-2836372D02*
X+3144652Y-2823672D01*
X+3109092Y-2798272D01*
X+3144652Y-2772872D01*
X+3126872Y-2760172D01*
X+3073532Y-2760172D01*
X+3144652Y-2722072D02*
X+3144652Y-2671272D01*
X+3126872Y-2658572D01*
X+3073532Y-2658572D01*
X+3073532Y-2722072D01*
X+3091312Y-2734772D01*
X+3109092Y-2722072D01*
X+3109092Y-2658572D01*
X+3144652Y-2595072D02*
X+3073532Y-2595072D01*
X+3180212Y-2595072D02*
X+3180212Y-2595072D01*
X+3180212Y-2493472D02*
X+3073532Y-2493472D01*
X+3091312Y-2391872D02*
X+3091312Y-2379172D01*
X+3073532Y-2379172D01*
X+3073532Y-2391872D01*
X+3091312Y-2391872D01*
X+3126872Y-2252172D02*
X+3144652Y-2264872D01*
X+3144652Y-2315672D01*
X+3126872Y-2328372D01*
X+3091312Y-2328372D01*
X+3073532Y-2315672D01*
X+3073532Y-2264872D01*
X+3091312Y-2252172D01*
X+3126872Y-2226772D02*
X+3144652Y-2214072D01*
X+3144652Y-2163272D01*
X+3126872Y-2150572D01*
X+3091312Y-2150572D01*
X+3073532Y-2163272D01*
X+3073532Y-2214072D01*
X+3091312Y-2226772D01*
X+3126872Y-2226772D01*
X+3073532Y-2125172D02*
X+3144652Y-2125172D01*
X+3126872Y-2125172D02*
X+3144652Y-2112472D01*
X+3109092Y-2087072D01*
X+3144652Y-2061672D01*
X+3126872Y-2048972D01*
X+3073532Y-2048972D01*
X+0Y-4600000D02*
X+3700000Y-4600000D01*
X+3700000Y+0D01*
X+0Y+0D01*
X+0Y-4600000D01*
M02*
